<svg width="237" height="14" viewBox="0 0 237 14" fill="none" xmlns="http://www.w3.org/2000/svg">
<g clip-path="url(#clip0_1_1013)">
<path d="M10.714 2.04653H6.27697V13.5877H4.43616V2.04653H0V0.34082H10.714V2.04653Z" fill="#243057"/>
<path d="M24.3315 12.0145C27.2066 12.0145 29.3321 9.85405 29.3321 6.96206C29.3321 4.05158 27.2066 1.91594 24.3315 1.91594C21.4802 1.91594 19.3534 4.05145 19.3534 6.96206C19.3534 9.85405 21.4802 12.0145 24.3315 12.0145V12.0145ZM24.3315 0.166824C28.5631 0.166824 31.2266 3.27096 31.2266 6.96193C31.2266 10.5385 28.6353 13.7631 24.2971 13.7631C20.1036 13.7631 17.4615 10.5569 17.4615 6.96193C17.4615 3.29189 20.1798 0.166824 24.3315 0.166824Z" fill="#243057"/>
<path d="M51.8189 13.5892H49.9839V3.27108H49.9462L45.9955 8.39797H45.6972L41.7521 3.27108H41.7154V13.5892H39.872V0.34082H41.6047L45.8472 5.77924L50.1103 0.34082H51.8189V13.5892Z" fill="#243057"/>
<path d="M74.1819 13.5892H72.3438V3.27108H72.3044L68.3565 8.39797H68.0558L64.107 3.27108H64.0753V13.5892H62.2321V0.34082H63.9596L68.2056 5.77924L72.4792 0.34082H74.1819V13.5892Z" fill="#243057"/>
<path d="M91.295 0.34082H93.5176L88.766 6.58889V13.5892H86.9251V6.57386L82.1702 0.34082H84.3857L87.8218 4.90141L91.295 0.34082Z" fill="#243057"/>
<path d="M143.335 13.5892H141.498V7.82165H134.312V13.5892H132.477V0.34082H134.312V6.10901H141.498V0.34082H143.335V13.5892Z" fill="#243057"/>
<path d="M150.958 13.5892H152.807V0.342361H150.958V13.5892Z" fill="#243057"/>
<path d="M162.2 11.8757H167.981V13.5892H160.357V0.34082H162.2V11.8757Z" fill="#243057"/>
<path d="M180.115 2.04653H175.115V5.72249H180.115V7.42537H175.115V13.5877H173.277V0.34082H180.115V2.04653Z" fill="#243057"/>
<path d="M186.56 13.5891H188.4V0.342285H186.56V13.5891Z" fill="#243057"/>
<path d="M205.93 12.6707C204.222 13.4491 202.832 13.7631 201.05 13.7631C197.122 13.7631 194.228 10.9235 194.228 7.03693C194.228 3.13612 197.199 0.166824 201.096 0.166824C202.608 0.166824 203.659 0.416074 205.671 1.29391V3.21253C204.164 2.3623 202.608 1.91581 201.067 1.91581C198.285 1.91581 196.124 4.10705 196.124 6.9812C196.124 9.9356 198.264 12.0143 201.309 12.0143C202.308 12.0143 203.207 11.7777 204.09 11.4886V8.77256H201.626V7.0621H205.93V12.6707H205.93Z" fill="#243057"/>
<path d="M220.218 2.04655H214.784V6.04944H220.028V7.75631H214.784V11.8757H220.386V13.5877H212.939V0.340836H220.218V2.04655Z" fill="#243057"/>
<path d="M228.518 6.12596H229.699C231.672 6.12596 232.24 5.07695 232.223 3.97067C232.201 2.73226 231.484 1.97154 229.699 1.97154H228.518V6.12596ZM229.906 0.34082C232.501 0.34082 234.118 1.76017 234.118 4.05427C234.118 5.58881 233.351 6.73258 231.97 7.29324C233.14 8.09466 233.856 9.3133 234.831 10.9619C235.382 11.8757 235.696 12.3212 236.582 13.5893H234.381L232.69 10.8649C230.996 8.15039 230.23 7.83732 229.294 7.83732H228.519V13.5895H226.678V0.340949H229.906L229.906 0.34082Z" fill="#243057"/>
<path d="M101.989 13.9165H122.363V1.52588e-05H101.989V13.9165Z" fill="#FEFEFE"/>
<path fill-rule="evenodd" clip-rule="evenodd" d="M112.184 10.277H122.04V3.63333H112.184V10.277Z" fill="#D21F34"/>
<path fill-rule="evenodd" clip-rule="evenodd" d="M102.329 10.2766H112.184V3.64745H102.329V10.2766Z" fill="#FEFEFE"/>
<path fill-rule="evenodd" clip-rule="evenodd" d="M102.331 3.64528H122.04V0.343521H102.331V3.64528Z" fill="#243057"/>
<path fill-rule="evenodd" clip-rule="evenodd" d="M102.331 13.5673H122.04V10.2576H102.331V13.5673Z" fill="#212A4F"/>
</g>
<defs>
<clipPath id="clip0_1_1013">
<rect width="236.581" height="13.9166" fill="white"/>
</clipPath>
</defs>
</svg>
