<svg width="121" height="34" viewBox="0 0 121 34" fill="none" xmlns="http://www.w3.org/2000/svg"><g clip-path="url(#clip0_1_1200)" fill="#000"><path d="M60.56 27.67a2.88 2.88 0 01-1.78.73c-.73 0-1.39-.46-1.39-1.59 0-2.64 3.7-5.15 6.14-5.09-.53 2.11-.92 4.23-3 5.94l.03.01zm46.43.26a8.698 8.698 0 01-6.08-5.22c1.19-1 2.64-1.85 4-2.84a3.39 3.39 0 001.39-1.92c.413-1.038.679-2.128.79-3.24 0-.59 0-1-.66-.92-.66.08-3 1.45-3.57 1.85a35.782 35.782 0 00-8.06 7.73c1.06-4.23 2.25-10.43 2.71-13.6a5.13 5.13 0 00-.07-3.3 10.24 10.24 0 00-2.64-2.71c-.92-.53-1.39.07-1.59.92-.59 3-.92 4.69-1.45 7.2a55 55 0 01-3 10.3c-.86 2.25-2.91 6.21-5.22 6.21-2.31 0-1.39-5.42-1.39-6.87-.07-.53-.13-1.78-1.32-2-4.09-.92-4.76-2.31-5.55-2.11-.53.07-.79.53-1 1.19-.86 2.77-1.32 5.22-2.91 7.59-.73 1.12-2.11 2.51-3.17 2.51s-1.39-1-1.39-1.92a32.06 32.06 0 011.06-6.87c.26-1.12-.33-1.32-.92-1.52a9.549 9.549 0 00-2-.26 13.56 13.56 0 00-8.59 3.1 16.23 16.23 0 00-2.71 2.91c-.92 1.12-3.7 4.49-5.35 4.49-1.12 0-1.25-1.25-1.25-2.18 0-3.9 1.85-9.91 3.24-13.47a53.84 53.84 0 002.25-5.81 3.16 3.16 0 00-.59-2.77 7.49 7.49 0 00-2.38-2.11 1.08 1.08 0 00-1.45.46 19.453 19.453 0 00-1.72 3.24 42.411 42.411 0 00-4.29 17.44c0 3.17.4 9 4.69 8.92 2.38 0 4.42-1.45 6-3.17.26 2 1.92 3.17 4.16 3.17a8 8 0 006.21-3.3 4.2 4.2 0 004.29 3.3c5.09 0 8.12-5.61 9.51-9.84l.4.2c0 .46-.07 1.19-.07 1.78 0 3.3.79 7.93 5.15 7.86 3.63 0 6-3.43 7.73-6.21h.07c-.26 1.92-.66 3.43-.79 5.42-.07.86 1.12.73 1.65.73 2.64 0 2.51-.59 3.24-2.84a8.86 8.86 0 012.64-3.57 14.751 14.751 0 003.63 4.69 6.74 6.74 0 004 1.78 1.999 1.999 0 001.39-.46 6.622 6.622 0 001.78-2.84 1.059 1.059 0 00-.86-1.06l.06-.06z"/><path d="M120.66 25.03c.13 2.44-1.72 4.23-4.23 5.61a15.129 15.129 0 01-7.86 1.92c-.53 0-.79-.33-.73-1.06.105-.6.304-1.181.59-1.72a2.08 2.08 0 011.85-1.25 10.444 10.444 0 002.84-.46c1.25-.33 2.51-.86 2.51-1.92 0-1.85-7.93-.79-7.93-4.29s5.88-5.28 8.19-5.94a13.848 13.848 0 012.71-.4c.53 0 .79.33.66.79-.2 1.12-.73 2.44-1.92 2.71-1.436.267-2.85.641-4.23 1.12-.26.13-.46.33-.46.53s.33.4.79.53c2 .53 7 .79 7.2 3.83h.02zm-79.78 7.13c-.79 0-1.52-.07-2.31-.13a54.31 54.31 0 00-7.79-.59 87.64 87.64 0 00-13.61 1.17c-3.06.524-6.149.858-9.25 1h-.73c-3.57 0-7.07-.92-7.2-5.22v-.33c.13-5.48 6.21-12.22 12-16.78a64.39 64.39 0 0115.65-9.25 25.56 25.56 0 017.93-2c2 0 1.65 1.72.2 4.16-1.45 2.44-2 2.91-3.83 3.17-3.24.4-7.93.79-16.84 7.59-5.09 3.9-9.71 9.25-9.58 12 0 1.72 1.32 2.31 2.91 2.31a51.1 51.1 0 008.32-1.12c5.22-.92 11.82-2.31 17.3-2.31 1.4-.025 2.799.13 4.16.46a4 4 0 012.13 1.64c.487.673.928 1.378 1.32 2.11.26.66.59 1.32.33 1.72-.07.26-.4.4-1.12.4h.01z"/></g><defs><clipPath id="clip0_1_1200"><path fill="#fff" d="M0 0h120.67v33.62H0z"/></clipPath></defs></svg>