<svg width="141" height="26" viewBox="0 0 141 26" fill="none" xmlns="http://www.w3.org/2000/svg"><g clip-path="url(#clip0_1_1211)" fill="#000"><path d="M13.41 6.8a6.08 6.08 0 014.62 2.31v.13l.13.13a3.609 3.609 0 002.77 1.32 3.55 3.55 0 003.57-3.57 3.46 3.46 0 00-.92-2.38A12 12 0 0013.41-.02C5.75-.02 0 5.26 0 12.73s5.68 12.75 13.27 12.81h.4a12.47 12.47 0 009.91-4.42 3.7 3.7 0 00.86-2.31 3.46 3.46 0 00-6.08-2.31 6.45 6.45 0 01-5 2.31c-3.5 0-5.48-2.51-5.48-6.08 0-3.57 2-5.94 5.48-5.94l.05.01zm50.33 18.76H64c7.53-.07 13.34-5.35 13.34-12.68C77.34 5.35 71.46 0 63.87 0 56.28 0 50.4 5.35 50.4 12.88c0 7.33 5.81 12.61 13.34 12.68zm31 0h.33a12.423 12.423 0 0010-4.42 3.773 3.773 0 00.92-2.31 3.539 3.539 0 00-3.57-3.5 3.399 3.399 0 00-2.58 1.19 6.35 6.35 0 01-5 2.31c-3.5 0-5.48-2.51-5.48-6.08 0-3.57 2-5.94 5.48-5.94a5.75 5.75 0 014.56 2.31l.13.13a.23.23 0 00.07.13 3.609 3.609 0 002.77 1.36 3.544 3.544 0 002.53-1.04 3.56 3.56 0 001.04-2.53 3.457 3.457 0 00-.92-2.38A11.994 11.994 0 0094.85.03c-7.66 0-13.41 5.28-13.41 12.75s5.68 12.75 13.27 12.81l.03-.03zm25.1 0h.4c7.59-.07 9.91-3.7 9.91-8.19 0-5.15-4.49-6.8-8.06-7.66-3.3-.73-4.89-.86-4.89-2.25 0-1 .86-1.45 2.64-1.45a7.671 7.671 0 014.76 1.85c.553.49 1.261.77 2 .79a2.998 2.998 0 002.734-4.229A3.09 3.09 0 00128.6 3.4a12.006 12.006 0 00-8.92-3.37c-5.22 0-9.44 2.25-9.44 7.79 0 5.09 3.7 6.93 7.07 7.79 4 1.06 5.48 1.06 5.48 2.38 0 1.06-.79 1.52-3.3 1.52a8.359 8.359 0 01-5.35-2l.07.07a3.08 3.08 0 00-4.82 3.7c0 .07.07.07.07.13a.9.9 0 00.2.26.506.506 0 00.13.2l.2.2c0 .07.07.07.13.13a14.23 14.23 0 009.64 3.37l.08-.01zM63.9 19.02c-3.43 0-5.55-2.58-5.55-6.14 0-3.56 2.11-6.21 5.55-6.21s5.55 2.51 5.55 6.21-2.11 6.14-5.55 6.14zM46.5 1.58a6.29 6.29 0 00-3.83-.59 10.74 10.74 0 00-6.14 3v.07-.07a3.92 3.92 0 00-4-3.63 4 4 0 00-4 3.9v17.3a4 4 0 007.93-.07v-4.65c0-6.47 3.76-8.06 5.81-8.12a12.7 12.7 0 003.1.33 4 4 0 001.06-7.46l.07-.01zm85.46-.13h.07V.74c.017-.111.04-.221.07-.33V.15l.2-.2h.33a.26.26 0 01.26.13c.07.07.13.07.13.2a.718.718 0 01.07.4v.73h.33c.2 0 .26 0 .33.07a.504.504 0 01.13.26c0 .13-.07.2-.2.26a.771.771 0 01-.46.13h-.13v2.18c0 .13 0 .2.07.2a.338.338 0 00.26.13.24.24 0 00.2-.07h.26a.24.24 0 01.2.07c.04.031.072.07.094.115a.331.331 0 01.036.145.44.44 0 01-.26.33 1.41 1.41 0 01-.79.2 1.19 1.19 0 01-.73-.2.837.837 0 01-.33-.46c0-.13-.07-.4-.07-.73V2.12h-.13a.5.5 0 01-.33-.13c-.07-.07-.07-.13-.07-.26a.4.4 0 01.07-.26c.07-.07.2-.07.4-.07l-.01.05zm6.07 2.05v1.32a.767.767 0 01-.13.46.606.606 0 01-.46.2.36.36 0 01-.33-.2c-.13-.07-.13-.26-.13-.46V3.17c0-.2-.07-.4-.07-.59a.457.457 0 00-.46-.46.658.658 0 00-.66.33 2.195 2.195 0 00-.2 1v1.39a.561.561 0 01-.13.46.4.4 0 01-.4.2c-.13 0-.2-.07-.33-.2a.561.561 0 01-.13-.46V1.93c0-.2 0-.33.13-.4a.36.36 0 01.33-.2.5.5 0 01.33.13.484.484 0 01.13.4v.13c.144-.211.35-.372.59-.46a1.2 1.2 0 011.32 0 .784.784 0 01.46.46.881.881 0 01.53-.46 1.11 1.11 0 01.66-.2 1.33 1.33 0 01.73.2.575.575 0 01.4.46c.13.13.13.4.2.73V4.9c-.07.2-.07.33-.2.4a.36.36 0 01-.33.2.403.403 0 01-.4-.2.561.561 0 01-.13-.46V3.12c0-.2-.07-.4-.07-.53a.503.503 0 00-.13-.33.56.56 0 00-.4-.13.5.5 0 00-.33.13.804.804 0 00-.33.33 2.996 2.996 0 00-.07.92l.01-.01z"/></g><defs><clipPath id="clip0_1_1211"><path fill="#fff" d="M0 0h140.41v25.56H0z"/></clipPath></defs></svg>