<svg width="146" height="26" viewBox="0 0 146 26" fill="none" xmlns="http://www.w3.org/2000/svg"><path fill-rule="evenodd" clip-rule="evenodd" d="M42.251 24.837h-1.996V.217h2.113v24.62h-.117zm47.275-13.752L99.488.255l.068.064V.217h2.779l-9.866 10.677 9.689 13.943h-2.512l-8.584-12.363-1.536 1.74v10.623h-2.113V.217h2.113v10.868zm-73.632-8.3a10.263 10.263 0 00-3.451-.581h-.091c-2.776.025-5.3 1.204-7.138 3.073C3.343 7.18 2.18 9.795 2.18 12.635a10.49 10.49 0 003.018 7.366c1.86 1.89 4.425 3.066 7.245 3.066 1.236 0 2.406-.19 3.48-.562a9.153 9.153 0 002.916-1.647l.083-.07 1.493 1.572-.097.08a12.198 12.198 0 01-3.678 2.093 12.453 12.453 0 01-4.197.721c-3.432 0-6.535-1.424-8.784-3.707A12.713 12.713 0 010 12.619c0-3.437 1.405-6.607 3.675-8.91C5.921 1.43 9.018 0 12.443 0c1.467 0 2.868.267 4.163.743A12.56 12.56 0 0120.318 2.9l.096.08-1.492 1.571-.084-.07a9.409 9.409 0 00-2.944-1.696zm90.649 22.069h-1.863V.234h1.979v24.62h-.116zM61.453.53c.22-.22.52-.364.86-.364.337 0 .637.146.855.365.233.235.376.555.376.87 0 .35-.134.659-.355.88-.22.222-.529.356-.877.356-.347 0-.655-.134-.876-.356A1.234 1.234 0 0161.453.53zM32.418 9.747a7.909 7.909 0 012.614 2.084V9.398h2.113V24.87h-2.113v-2.565a8.141 8.141 0 01-2.636 2.141c-1.082.55-2.3.857-3.585.857a8.163 8.163 0 01-5.797-2.413 8.219 8.219 0 01-2.404-5.816c0-2.238.923-4.282 2.412-5.765a8.192 8.192 0 015.789-2.397c1.294 0 2.52.296 3.607.834zM24.45 21.433a6.14 6.14 0 008.71-.019 6.153 6.153 0 001.805-4.355c0-1.679-.702-3.223-1.822-4.347-1.12-1.124-2.66-1.828-4.332-1.828a6.109 6.109 0 00-4.343 1.807 6.186 6.186 0 00-1.812 4.368c0 1.718.684 3.261 1.794 4.374zM46.267 9.467l5.25 11.65 5.366-11.72h2.268C56.6 14.929 54.061 20.468 51.517 26L43.883 9.398h2.352l.032.069zM63.21 24.87h-1.997V9.399h2.113V24.87h-.116zm6.846-15.426a6.242 6.242 0 012.552-.53c1.703 0 3.246.693 4.363 1.813a6.184 6.184 0 011.809 4.379v9.764h-2.047v-9.764c0-1.166-.46-2.225-1.208-2.99a4.06 4.06 0 00-2.917-1.233c-1.215 0-2.286.426-3.043 1.185-.727.73-1.166 1.77-1.166 3.038v9.764h-2.113V9.399H68.4v1.255a4.802 4.802 0 011.657-1.21zM128.522.547c.219-.22.52-.363.86-.363.337 0 .637.146.855.365.234.234.376.554.376.87 0 .349-.134.658-.355.88a1.224 1.224 0 01-.876.356c-.348 0-.656-.135-.877-.356a1.233 1.233 0 01-.354-.88c0-.322.14-.64.371-.872zm8.755 8.897a6.242 6.242 0 012.551-.53c1.704 0 3.247.693 4.364 1.813A6.183 6.183 0 01146 15.106v9.764h-2.047v-9.764c0-1.166-.46-2.225-1.208-2.99a4.059 4.059 0 00-2.917-1.233c-1.215 0-2.286.426-3.042 1.185-.727.73-1.166 1.77-1.166 3.038v9.764h-2.046V9.399h2.046v1.255a4.809 4.809 0 011.657-1.21zm-25.501 1.849a8.093 8.093 0 015.762-2.38h.281l-.021.022a8.113 8.113 0 015.478 2.39 8.136 8.136 0 012.38 5.767v.25h-14.269a6.12 6.12 0 001.839 4.15 6.145 6.145 0 004.312 1.759 6.118 6.118 0 003.254-.925 5.88 5.88 0 002.214-2.496l.05-.106 1.806.868-.049.105A7.862 7.862 0 01121.852 24a8.15 8.15 0 01-4.314 1.236 8.096 8.096 0 01-5.763-2.38 8.152 8.152 0 01-2.371-5.782 8.15 8.15 0 012.371-5.782h.001zm-.136 3.913h11.714a6.075 6.075 0 00-2.112-3.046 6.064 6.064 0 00-3.704-1.26 6.18 6.18 0 00-5.898 4.306zm18.574 9.665h-1.93V9.397h2.046V24.87h-.116z" fill="#000"/></svg>