<svg width="158" height="18" viewBox="0 0 158 18" fill="none" xmlns="http://www.w3.org/2000/svg"><path fill-rule="evenodd" clip-rule="evenodd" d="M2.068 12.786c.302-.21.297-.411.456-1.053.418-1.724 1.986-7.933 2.288-9.137.027-.072.085-.368.064-.497-.143-.325-.557-.47-.896-.527-.18-.036-.82-.13-.884-.202-.112-.115-.08-.223-.064-.368.053-.266.233-.274.435-.274h5.71c.36.008.345.642.101.707-1.017.094-1.96.137-2.363 1.089-.344 1.349-2.373 8.942-2.558 9.764-.032.166-.048.404.068.534l.053.065c.16.195.371.303.604.382.239.065.456.115.71.144.25.044.323.058.376.188.043.166.043.375-.053.461-.1.087-.27.101-.27.101H.208c-.121-.029-.19-.144-.206-.281-.006-.159-.006-.296.09-.39.148-.15.535-.18.535-.18.175 0 .572-.072 1.022-.28.08-.037.128-.059.196-.095l.223-.151zM46.74.736h-4.811c-.387.043-.398.23-.403.324-.021.21.053.36.217.418.403.08.774.015 1.14.16.09.057.19.136.116.338-.19.26-7.226 9.433-7.428 9.555-.1-.158-1.361-8.408-1.472-9.057-.043-.238-.059-.606.328-.678.493-.159.736-.144 1.17-.231.17-.036.176-.195.18-.346-.004-.238-.073-.411-.28-.44h-4.582c-.043.022-.25-.022-.302.224a.476.476 0 00.005.31c.074.165.212.23.418.26.048.035.88.143 1.086.54.144.325.525 3.007.562 3.368-.127.209-4.021 5.3-4.583 6-.037.057-.132.086-.143-.03-.148-.612-.227-1.348-.36-2.033-.01-.122-1.043-6.649-1.096-7.002-.038-.245.084-.447.227-.599.392-.18.816-.245 1.24-.223.106-.058.28-.036.387-.18.02-.094.069-.217.026-.332a.408.408 0 00-.26-.296c.17 0-4.211-.007-5.117 0-.26 0-.376-.036-.535.087a.455.455 0 00-.074.288c.02.137.084.281.19.34.334.143.922.028 1.616.453.27.202.297.736.366 1.147.095.635.212 1.161.28 1.796.154.836.859 5.228.949 5.762.058.346.424 2.653.424 2.653.069.412.28.722.556.83.223.029.397.072.599-.159l5.51-7.19c.042.03.036.116.052.21.18 1.096.896 6.165 1.123 6.85.027.116.191.613.72.31A.67.67 0 0035 13.97c.138-.188 8.561-11.092 8.826-11.33.006-.007.657-.807 1.383-.959.726-.202.99-.137 1.568-.274.095-.05.133-.173.122-.31 0-.158-.021-.31-.159-.36zM20.271 6.62c.096.303.09.736.037 1.075-.047.245-.079.403-.121.613-.09.36-.811 3.043-1.039 4.096-.042.13.053.223.143.202.276-.087.196-.072.366-.18.021-.022.858-.65 1.192-1.018.206-.18.312-.389.53-.23.095.05.159.238.174.396-.02.137-.053.166-.116.282-.392.476-.62.663-1.039 1.024-.312.252-.958.706-1.017.75-.265.187-.9.476-.9.476-.546.144-.716.079-.78.1-.248-.021-.465-.237-.582-.547-.201-.686.148-1.32.286-1.933.037-.217.133-.44.16-.656.105-.289.18-.7.275-1.024.11-.347.17-.729.291-1.082.143-.635.392-1.226.318-1.882-.058-.267-.217-.303-.392-.318-.27.022-.413.072-.652.173-.434.202-.81.404-1.192.729-.17.151-.71.584-.906.822 0 0-1.303 1.529-1.483 1.76-.228.317-.44.59-.625.915 0 0-.784 1.428-1.197 2.524-.048.13-.059.21-.207.383-.201.194-.503.187-.72.036-.255-.202-.34-.736-.297-.974.09-.483.233-.887.323-1.341.402-1.45.768-2.943 1.187-4.406.031-.101.058-.21-.027-.289-.143-.1-.307.029-.445.072-.212.072-1.134.65-1.526.887-.344.202-.482-.122-.487-.31 0 0 .026-.296.27-.418.276-.144 2.045-1.277 2.67-1.435.424-.13 1.002-.296 1.383.072.053.021.339.476.143 1.082-.111.375-.26.951-.217 1.081.02.058.037.094.148.03.186-.174 1.605-1.263 1.764-1.335.63-.425 1.34-.728 2.05-.96 0 .015.668-.215 1.097-.129.52.094.99.303 1.16.887zm49.779-.728c.19.05.312.021.508.425.09.21.127.411.122.685a8.52 8.52 0 01-.212 1.118c-.048.13-.154.404.058.418.08.022 1.134-1.204 1.197-1.276.345-.303.572-.591.996-.844.175-.122.27-.151.419-.223.286-.116.466-.166.741-.21.186-.028.71.101.742.138.18.057.54.23.615.699.037.714-.223 1.038-.355 1.19-.26.252-.668.397-.96.159-.137-.152-.11-.368-.11-.592-.075-.7-.551-.331-.69-.245-.704.433-1 .873-1 .873s-.573.555-.87 1.081c0 0-2.113 3.231-2.49 4.046-.126.216-.264.49-.391.714a.68.68 0 01-.763.332c-.17-.073-.392-.354-.424-.563-.064-.512.175-.85.238-1.305.037-.058.975-3.7 1.018-3.815.1-.433.243-.85.333-1.298.006-.101-.042-.31-.227-.281-.175 0-.207.029-.408.1-.8.383-1.224.679-1.224.679-.08.072-.127.122-.239.209 0 0-.19.151-.37.115-.07-.029-.127-.072-.149-.274a.67.67 0 01.175-.454s.466-.483.917-.736c.429-.223.88-.497 1.33-.663.577-.224 1.345-.231 1.472-.202zm-20.683-.166c.387.05.694.115 1.06.274.275.094.635.346.826.642.106.173.19.483.164.757-.021.101-.01.144-.069.339-.058.187-.164.54-.535.822a3.613 3.613 0 01-.657.476c-.44.245-1.732.873-1.934.974-.148.057-.953.375-1.011.41-.27.109-.546.203-.827.29-.36.093-1.234.33-1.669.425-.318.079-.651.137-1.17.28-.154.087-.112.361-.09.563.031.245.042.368.121.563.016.007.165.39.424.461.19.08.35.116.736.123.732-.094 1.945-.411 1.913-.397a30.392 30.392 0 001.32-.497c.54-.245 1.064-.505 1.567-.822.106-.073.233-.152.345-.224.122-.058.206-.065.296 0 .101.094.16.159.101.404-.159.454-.561.54-.864.743-.196.086-.826.461-.964.533-.116.036-.741.36-.858.404-.132.08-1.022.418-1.346.548-.44.152-1.589.426-1.626.404a6.95 6.95 0 01-.853.072c-.185.029-.62-.021-.726-.036-.455-.043-.884-.296-1.218-.67-.25-.361-.329-.7-.366-.83-.047-.195-.069-.281-.09-.534a3.98 3.98 0 01.318-1.86c.164-.36.355-.67.493-.873.291-.49.98-1.269.98-1.269.355-.404.97-.93 1.61-1.305.355-.267 1.69-.8 1.971-.894.482-.188 1.446-.318 1.446-.318.615-.079.806-.007 1.182.022zm10.844.151c-1.478.195-1.997.361-2.262.49-.238.08-1.07.376-1.695.772-.217.166-.471.31-.683.498-.6.411-1.834 1.796-2.3 2.574-.084.051-.593 1.046-.736 1.522-.25.591-.201 1.349-.117 1.536.292 1.046.784 1.017 1.145 1.017.826-.036 1.25-.18 1.88-.382.112-.022.663-.274.806-.332.524-.195 2.6-1.572 2.998-1.875.08-.036.255-.223.334-.187l-.08.375c-.1.418-.27 1.024-.27 1.427-.01.101.043.794.583.93.461.102.726-.014 1.044-.1.09-.036.122-.05.233-.108.297-.094 2.15-1.479 2.458-1.774.154-.13.302-.274.37-.476.112-.318-.105-.498-.126-.498-.202-.058-.302.043-.466.202-.27.303-.467.462-.87.8-.312.21-.577.44-.926.49-.112-.014-.133-.057-.133-.057-.122-.144-.042-.36-.005-.548.058-.23.975-3.678 1.065-4.067.032-.094.286-1.068.323-1.219a2.91 2.91 0 00.1-.483c0-.202-.11-.267-.227-.317-.8-.21-1.547-.224-2.443-.21zm-11.877.599c-.239.029-.45.087-.906.224-.228.079-.53.18-.636.245-.334.158-.657.353-.98.548a4.839 4.839 0 00-1.902 2.3c-.069.108-.222.628-.265.7.032-.043.175-.065.323-.108 0 0 1.335-.347 1.563-.426.26-.072.482-.137.795-.252.8-.289 2.066-.988 2.278-1.11.275-.152.683-.52.853-.852a1.13 1.13 0 00.1-.743c-.031-.144-.132-.26-.206-.346 0 0-.18-.281-1.017-.18zm12.46.411c-.206.858-.45 1.752-.673 2.632-.042.144-.069.397-.254.65-.206.23-.646.554-.689.569-.058.087-1.827 1.248-2.49 1.565-.174.08-.858.382-1.06.44-.9.288-.974-.418-.98-.52-.031-.13 0-.562.027-.656.16-.714.43-1.327.784-1.86.297-.541 1.023-1.363 1.52-1.724.96-.735 1.738-.988 1.776-1.002.44-.123 1.732-.325 1.938-.318.175.015.101.224.101.224z" fill="#2B2A29"/><path d="M112.644 6.49V5.33h-2.236V3.417h-.281l-2.05 2.524v.548h.8l.005 5.777c0 .858.138 1.442.435 1.846.312.433.8.642 1.472.642 1.092 0 1.722-.794 1.886-1.039l.022-.029.148-.223s-.101-.123-.191-.26c-.069-.108-.228-.31-.228-.31-.058.05-.148.173-.249.26-.079.057-.174.144-.243.165a.877.877 0 01-.414.101c-.349 0-.598-.115-.768-.346-.286-.39-.323-1.096-.323-1.803V6.49h2.215zm43.394 2.647c.869 0 1.176-.029 1.245-.159.085-.166.064-.432.048-.728-.032-.62-.302-1.652-.668-2.156-.503-.7-1.187-1.082-2.029-1.082-2.109 0-3.698 2.228-3.698 5.185 0 .793.133 1.954.774 3 .598.974 1.568 1.529 2.675 1.529.954 0 2.209-.584 2.962-2.084l.09-.21s-.149-.209-.239-.295c-.095-.087-.281-.224-.307-.224l-.143.238c-.62.75-.948.895-1.531.923-.8.022-1.484-.36-1.976-1.038-.514-.707-.8-1.73-.8-2.87l3.597-.03zm-.291-1.688c.01.188.042.31-.08.448-.154.158-1.128.158-1.796.158l-1.346-.014c.091-.584.525-2.005 1.897-2.005.408-.007.779.224.996.49.244.296.318.758.329.923zM116.4 3.022l1.499-2.553h-1.939l-.816 2.56 1.256-.007zM86.25 13.6l-.683-.086c-.525-.05-.806-.822-.795-1.795.021-1.738.09-3.512.143-4.911.042-1.003.085-2.041.138-3.116.742 2.229 1.923 5.293 2.394 6.563.313.829 1.309 3.555 1.494 4.298h.572c.281-.902 1.182-3.246 1.839-4.882 0 0 2.278-5.64 2.373-5.885l.048 7.933c.01.829-.138 1.709-.832 1.795l-.54.087.005.872s1.658-.065 2.283-.065c.626 0 2.236.065 2.236.065v-.865l-.572-.072c-.578-.072-.848-.974-.874-1.745a370.525 370.525 0 01-.154-7.284l-.021-1.695c-.026-.865.201-1.73 1.054-1.802l.53-.058V0s-1.266.094-1.716.094c-.34 0-.69 0-1.256-.065l-.154-.015-.01.21c-.027.915-.488 2.048-1.245 3.923 0 0-1.394 3.605-1.743 4.42-.239.555-.694 1.767-1.065 2.596a79.43 79.43 0 01-.885-2.206l-2.103-5.33c-.403-1.038-.938-2.524-.864-3.367l.022-.246-.18.015c-.557.065-1.002.065-1.394.065-.402 0-1.584-.087-1.584-.087V.52c.005.217 0 .433 0 .433l.43.05c.815.152 1.022.8 1.006 1.616a117.801 117.801 0 01-.186 4.716c-.132 2.091-.196 3.433-.312 4.594-.09.937-.493 1.521-.948 1.6l-.53.073v.894s1.409-.072 1.965-.072c.663 0 2.114.05 2.114.05v-.872zm20.042-8.307l-.228.022-1.854.021-.186-.028-.106 1.052c-.418-.865-1.329-1.168-1.933-1.168-2.337 0-3.614 2.402-3.614 5.373 0 1.132.334 2.271.906 3.05.69.945 1.473 1.024 2.194 1.053.265.014.445-.007.704-.08l.996-1.283v-.108s-.614.288-1.197.281c-.445-.007-.848-.267-1.213-.75-.472-.627-.689-1.853-.689-3.014 0-1.601.435-3.397 1.929-3.44.863-.022 1.372.764 1.531 1.197.127.353.196.462.196 1.94l.015 2.502.011 1.435.027 1.125s1.716-.086 2.352-.036c0 0 .302.036.402.036l.027-.836v-.007l-.276-.044c-.445-.115-.762-.26-.895-.634-.106-.296-.095-2.034-.095-2.034s0-2.416.01-3.144c.016-.786.117-1.298.424-1.478.249-.137.562-.195.562-.195v-.808zm18.632 6.152c-.016 1.298-.159 1.867-.503 2.033-.26.123-.562.123-.562.123v.887l.27-.015c.482-.043.98-.043 1.584-.043.594 0 1.102 0 1.584.043l.265.015v-.873s-.249-.021-.551-.1c-.302-.073-.529-.383-.54-1.71l.005-3.721c0-.692-.175-1.514-.535-2.012-.376-.512-.906-.894-1.579-.894-.874 0-1.748.577-2.426 1.255l.026-1.14s-.709.058-1.213.065c-.365.007-1.356-.065-1.356-.065v.779c.212.036.509.23.652.375.164.166.339.62.339 1.067l-.006 3.93c-.01 1.299-.185 1.912-.524 2.07-.254.123-.546.123-.546.123v.85l.27-.014c.483-.043.986-.065 1.579-.065.599 0 1.102.022 1.584.065l.27.015v-.88s-.307-.007-.54-.101c-.35-.137-.53-.375-.54-1.702l.005-3.245c0-.418.058-.8.244-1.11.19-.325.651-.736 1.292-.736.488 0 .864.238 1.108.562.227.318.349.83.349 1.27l-.005 2.899zm21.419-6.152s.44.072 1.489.065c0 0 .614 0 1.096-.043 0 0-.01 1.45-.01 3.007v4.031c0 .793.551 1.248 1.097 1.327 0 0-.016.289-.016.411 0 .144.005.382 0 .375l-.286-.014c-.44.007-1.304-.116-1.717-.03l-.456.087-.116-1.276c-.599.678-1.6 1.406-2.49 1.406-.673 0-1.203-.288-1.574-.865-.339-.527-.535-1.262-.535-2.106V7.954c-.01-1.067-.212-1.5-.513-1.694-.197-.123-.403-.188-.403-.188v-.779s.286.058 1.33.05c.598 0 1.133-.05 1.133-.05v5.885c0 .605.149 1.132.361 1.507.206.368.524.591 1.011.591.642 0 1.214-.548 1.404-.872.186-.31.218-.556.218-1.14v-3.31c-.011-1.038-.191-1.478-.535-1.702a1.02 1.02 0 00-.483-.18l-.005-.779zm-32.02.909c.207.036.456.144.615.288.122.108.36.397.36.837v4.11c-.011 1.291-.17 1.825-.498 2.027-.281.173-.567.173-.567.173v.836l.27-.014c.482-.036.965-.036 1.563-.036.599 0 1.123 0 1.605.036l.265.014v-.836s-.212.007-.54-.108c-.329-.123-.525-.404-.535-1.731V7.824c0-1.427.095-2.538.095-2.538s-.821.115-1.287.087c-.111 0-1.441-.073-1.441-.073s.005.26.005.462c.005.223-.005.418-.005.418l.095.022zm16.503-3.18L132.32.469h-1.944l-.811 2.56 1.261-.007zm-2.082 3.18c.206.036.455.144.614.288.122.108.36.397.36.837v4.11c-.01 1.291-.169 1.825-.498 2.027-.28.173-.566.173-.566.173v.836l.27-.014c.482-.036.969-.036 1.563-.036.598 0 1.123 0 1.605.036l.265.014v-.836s-.217.007-.541-.108c-.328-.123-.524-.404-.535-1.731V7.824c0-1.427.096-2.538.096-2.538s-.821.115-1.293.087c-.106 0-1.43-.073-1.43-.073v.462c.005.223 0 .418 0 .418l.09.022zm9.854 8.3c1.372-.728 2.209-2.358 2.209-4.716 0-2.978-1.515-5.005-3.719-5.005-2.214 0-3.777 2.229-3.777 5.106 0 2.856 1.382 4.716 3.12 4.918 0 0 .058.022.498.058l1.107 2.33 2.215.006-1.929-2.545c.26-.137.276-.152.276-.152zm-1.091-.656c-1.092.317-2.263-.83-2.427-3.7-.122-2.149.403-3.973 1.77-4.132 1.335-.151 2.119 1.457 2.251 3.657.127 2.149-.318 3.793-1.594 4.175z" fill="#2B2A29"/></svg>