<svg width="237" height="14" viewBox="0 0 237 14" fill="none" xmlns="http://www.w3.org/2000/svg"><g clip-path="url(#clip0_1_1013)"><path d="M10.714 2.047H6.277v11.54h-1.84V2.048H0V.34h10.714v1.706zm13.617 9.967c2.876 0 5.001-2.16 5.001-5.052 0-2.91-2.125-5.046-5-5.046-2.852 0-4.979 2.135-4.979 5.046 0 2.892 2.127 5.053 4.978 5.053zm0-11.847c4.232 0 6.896 3.104 6.896 6.795 0 3.577-2.592 6.801-6.93 6.801-4.193 0-6.835-3.206-6.835-6.801 0-3.67 2.718-6.795 6.87-6.795zM51.819 13.59h-1.835V3.27h-.038l-3.95 5.127h-.299L41.752 3.27h-.037v10.32h-1.843V.341h1.733l4.242 5.438L50.11.341h1.709v13.248zm22.363 0h-1.838V3.27h-.04l-3.948 5.127h-.3L64.107 3.27h-.032v10.32h-1.843V.341h1.728l4.246 5.438L72.479.341h1.703v13.248zM91.295.34h2.223l-4.752 6.25v7h-1.84V6.574L82.17.34h2.216l3.436 4.56L91.295.34zm52.04 13.25h-1.837V7.821h-7.186v5.767h-1.835V.341h1.835v5.768h7.186V.341h1.837v13.248zm7.623 0h1.849V.341h-1.849V13.59zm11.242-1.714h5.781v1.713h-7.624V.341h1.843v11.535zm17.915-9.829h-5v3.675h5v1.703h-5v6.163h-1.838V.34h6.838v1.706zm6.445 11.543h1.84V.341h-1.84V13.59zm19.37-.92c-1.708.78-3.098 1.093-4.88 1.093-3.928 0-6.822-2.84-6.822-6.726 0-3.9 2.971-6.87 6.868-6.87 1.512 0 2.563.25 4.575 1.127v1.919c-1.507-.85-3.063-1.297-4.604-1.297-2.782 0-4.943 2.191-4.943 5.065 0 2.955 2.14 5.033 5.185 5.033.999 0 1.898-.236 2.781-.525V8.773h-2.464v-1.71h4.304v5.608zm14.288-10.623h-5.434v4.002h5.244v1.707h-5.244v4.12h5.602v1.712h-7.447V.34h7.279v1.706zm8.3 4.079h1.181c1.973 0 2.541-1.05 2.524-2.155-.022-1.239-.739-2-2.524-2h-1.181v4.155zm1.388-5.785c2.595 0 4.212 1.42 4.212 3.713 0 1.535-.767 2.679-2.148 3.24 1.17.8 1.886 2.02 2.861 3.668.551.914.865 1.36 1.751 2.627h-2.201l-1.691-2.724c-1.694-2.715-2.46-3.028-3.396-3.028h-.775v5.752h-1.841V.341h3.228z" fill="#243057"/><path d="M101.989 13.916h20.374V0h-20.374v13.916z" fill="#FEFEFE"/><path fill-rule="evenodd" clip-rule="evenodd" d="M112.184 10.277h9.856V3.633h-9.856v6.644z" fill="#D21F34"/><path fill-rule="evenodd" clip-rule="evenodd" d="M102.329 10.277h9.855v-6.63h-9.855v6.63z" fill="#FEFEFE"/><path fill-rule="evenodd" clip-rule="evenodd" d="M102.331 3.645h19.709V.344h-19.709v3.301z" fill="#243057"/><path fill-rule="evenodd" clip-rule="evenodd" d="M102.331 13.567h19.709v-3.31h-19.709v3.31z" fill="#212A4F"/></g><defs><clipPath id="clip0_1_1013"><path fill="#fff" d="M0 0h236.581v13.917H0z"/></clipPath></defs></svg>