<svg width="111" height="26" viewBox="0 0 111 26" fill="none" xmlns="http://www.w3.org/2000/svg"><g clip-path="url(#clip0_1_1300)"><path fill-rule="evenodd" clip-rule="evenodd" d="M101.84 1.19h7.6l-8.39 11 9.31 12.28h-7.53l-5.28-7.4-.07-.13-.13.13-5.28 7.4h-7.59l9.38-12.28-8.39-11H93l4.49 6.08 4.35-6.08zm-56.6 24.17h.13a12.689 12.689 0 0010.17-5.15l-4.42-3.37a7.19 7.19 0 01-13-4.16 7.15 7.15 0 017.2-7.07 7.29 7.29 0 015.15 2.11l4.42-3.37a12.94 12.94 0 00-9.58-4.36 12.68 12.68 0 10-.07 25.36v.01zM74.56 1.19h7.53l-8.39 11 9.38 12.28h-7.59l-5.28-7.4-.13-.13-.07.13-5.28 7.4h-7.54l9.31-12.28-8.39-11h7.59l4.36 6.08 4.5-6.08zM0 1.19h5.09l9.1 12.22 9-12.22h5.15V24.5h-5.35V11.42l-8.78 12-8.85-12V24.5H.01L0 1.19zm56.4 5.28v.07a14.18 14.18 0 011.39 6.74h-17.6c-.59-.13-.59-.73-.13-1L56.4 6.47z" fill="#000"/></g><defs><clipPath id="clip0_1_1300"><path fill="#fff" d="M0 0h110.36v25.36H0z"/></clipPath></defs></svg>