<svg width="141" height="38" viewBox="0 0 141 38" fill="none" xmlns="http://www.w3.org/2000/svg"><g clip-path="url(#clip0_1_1216)"><path fill-rule="evenodd" clip-rule="evenodd" d="M15.393 31.538a9.293 9.293 0 00-1.625 3.028v.208a.315.315 0 000 .344l.267.478a.124.124 0 00.161.041.124.124 0 00.045-.04c.072-.136.134-.344.206-.48a7.668 7.668 0 011.698-1.851c.34-.344-.206-1.239-.412-1.655a.236.236 0 00-.34-.073z" fill="#141B53"/><path fill-rule="evenodd" clip-rule="evenodd" d="M15.558 24.806c.072 0 .134 0 .134-.073a9.26 9.26 0 000-1.373h-.072a9.99 9.99 0 00-3.087-1.103c-.072-.073-.134 0-.134.073.057.152.082.315.072.478a.06.06 0 01.055.017.063.063 0 01.017.056 8.907 8.907 0 013.087 1.925h-.072z" fill="#E31145"/><path fill-rule="evenodd" clip-rule="evenodd" d="M10.794 36.085c.206-.208 1.152-.416 1.636-.894.356-.717.609-1.48.751-2.269 0-1.446.072-3.714-.072-5.358a44.92 44.92 0 00-.545-4.058c-.072-.136.072-.209.206-.209a10.285 10.285 0 012.654 1.852c.134.073.134.209.206.271.134 2.268-.813 3.507-.34 5.359a3 3 0 01.073.343c-.072.135-.134.208-.134.27a9.813 9.813 0 00-1.77 3.226c.004.192.05.38.134.552.133.27.75.957.34 1.165a8.23 8.23 0 01-1.287.135 6.464 6.464 0 01-1.636-.135c-.072 0-.34 0-.206-.27l-.01.02zm5.166-2.341s.071.073 0 .073a3.149 3.149 0 00-.34 1.238c-.048.48-.073.964-.072 1.447h-.34a12.561 12.561 0 010-1.645.579.579 0 01.206-.551 4.06 4.06 0 01.545-.551v-.01z" fill="#141B53"/><path d="M24.047 19.79c-.072.209-.072.48-.412.552a2.048 2.048 0 01-1.029-.478 19.63 19.63 0 01-2.51-1.51 2.075 2.075 0 01-.885-1.3c.134-.551.751.073 1.43.136.474 0 .546.822.947 1.165a2.396 2.396 0 001.831.416c.268 0 .546-.073.752-.073.205 0 .267.136.205.208-.133.344-.206.614-.34.895l.011-.01z" fill="#1B2747"/><path fill-rule="evenodd" clip-rule="evenodd" d="M22.288 18.396c.446.105.91.105 1.358 0 .072 0 .072-.135 0-.135-.268-.135-.813-.135-1.153-.27a3.467 3.467 0 01-.679-.27c-.134-.074-.267-.074-.134.134a.979.979 0 00.608.552v-.01z" fill="#E10585"/><path d="M8.016 10.998c1.564 1.582 2.058 1.374 2.058 1.374.072-.208 0-.552-.206-.614-.206-.063-.607-.416-1.03-.76a44.669 44.669 0 01-4.825-4.807c-.072-.135-.206-.135-.34 0a.315.315 0 000 .343l4.343 4.464z" fill="#1B2747"/><path d="M5.021 4.464a.52.52 0 01.68.208c.101.21.215.416.339.614a1.049 1.049 0 01.072.895c-.072.27-.134.551-.206.76a.26.26 0 01-.187.142.255.255 0 01-.224-.07c-.607-.76-1.359-1.581-1.359-1.654-.133-.344.885-.895.885-.895z" fill="#E21243"/><path d="M6.791 5.91c.175.104.357.195.546.27.245.106.44.304.545.552.112.383.201.772.267 1.166.16.62.436 1.202.813 1.717a.956.956 0 010 .76s0 .072-.072 0L6.832 8.292a7.64 7.64 0 01-.607-.687.42.42 0 01-.072-.27c.134-.27.268-.957.412-1.238.144-.281.206-.208.267-.136l-.04-.052z" fill="#1B2747"/><path fill-rule="evenodd" clip-rule="evenodd" d="M9.374 10.925c-.072 0-.072-.072-.072-.135a2.65 2.65 0 00.072-1.04c-.267-.53-.494-1.08-.68-1.644 0-.136-.133-.614-.205-1.04-.072-.209.268-.271.34-.074.072.198.072.208.072.27a12.59 12.59 0 001.029 3.3c.411.686.473.613.473.821.072.136-.134.27-.206.136l-.823-.594z" fill="#E31145"/><path d="M15.96 9.895a.061.061 0 00.054-.017.063.063 0 00.017-.055 2.796 2.796 0 01-.34-.614v-.177c0-.073-.133-.073-.133 0a1.478 1.478 0 01-.34.208c-.133.135-.411.478-.607.687a.429.429 0 00-.072.478l.268.552c0 .135.072.27.072.416 0 .146.134.073.206 0l.874-1.478z" fill="#1B2747"/><path fill-rule="evenodd" clip-rule="evenodd" d="M16.371 10.374l-1.029 1.509v.073c0 .208.206.686.206.822 0 .267.071.53.206.76.205.27.946.821 1.09 1.04l.751.478c.073 0 .34-.072.072-.551-.267-.479-.473-.552-.607-1.04a8.586 8.586 0 01.134-2.082.982.982 0 00-.267-.551c-.134-.208-.34-.344-.412-.479-.072-.135-.134-.073-.134 0l-.01.021z" fill="#00A3D3"/><path d="M14.54 11.269c.071-.344-.34-.76-.412-.687-.072.073-.813 1.103-.813 1.103s-.072.135 0 .135l.545.479c0 .073.072.073.134 0 .062-.073.545-.614.545-1.04v.01zm2.037-1.925c0 .073-.134.073-.134 0a3.98 3.98 0 01-.268-.479.441.441 0 010-.416 4.69 4.69 0 00.546-1.3c.206-.76 1.903-4.745 2.058-5.203a.384.384 0 01.285-.191.376.376 0 01.322.118.847.847 0 01.134.895l-2.943 6.576z" fill="#1B2747"/><path fill-rule="evenodd" clip-rule="evenodd" d="M19.705 5.15a7.38 7.38 0 00-.751.417c-.134 0-.206-.073-.134-.136l1.224-2.611a.508.508 0 01.5-.3.501.501 0 01.447.373.062.062 0 01.07.043c.003.01.004.02.002.03.072.135.134.416.206.55a.304.304 0 010 .344 3.662 3.662 0 01-1.564 1.301v-.01z" fill="#00A3D3"/><path d="M16.71 9.687l1.492-3.028a1.46 1.46 0 01.268-.416c.813-.614 1.832-.895 2.583-1.581.072-.073.206.072.133.135l-3.807 5.775c-.134.27-.473-.135-.607-.27a.512.512 0 01-.072-.615h.01zm4.075 1.998c.072-.073.134 0 .134.073s-.072.135-.134.208c-.463.12-.9.329-1.286.614a.922.922 0 00-.206.551c0 .136-.206.344-.679.073a3.187 3.187 0 01-1.09-1.717c0-.135.071-.27.205-.208.134.063.134.073.268.136.267.27.75.76 1.152.76a5.4 5.4 0 001.225-.271c.13-.084.267-.154.411-.209v-.01z" fill="#1B2747"/><path fill-rule="evenodd" clip-rule="evenodd" d="M20.785 13.954c.546.416.607.208.885.072.293-.294.603-.572.926-.832a10.5 10.5 0 012.377-.957 3.683 3.683 0 001.564-.895h.072c.072-.136 0-.27-.134-.208-1.564.343-4.352.208-4.898.614a6.88 6.88 0 01-1.492.686c-.34.136-.679.958-.205.958.473 0 .473.208.946.551l-.04.01z" fill="#754090"/><path d="M26.764 10.582c.072 0 .133-.073.205-.135a1.356 1.356 0 00-.072-.552c0-.208-.205-.416-.411-.686A.934.934 0 0025.333 9s-2.51 1.581-3.333 2.08c0 0 0 .136.072.136a26.602 26.602 0 004.692-.687v.052zm-6.38 3.913c.134 0 .134-.209.072-.271-.062-.062-.34-.27-.412-.208l-.885.479c-.133.072-.133.135-.072.27.072.073.134.135.206.073l1.09-.343z" fill="#1B2747"/><path fill-rule="evenodd" clip-rule="evenodd" d="M5.968 14.703c-.072-.136.072-.208.134-.136.267.136.473.552.75.614a.727.727 0 00.474-.208 1.44 1.44 0 00.268-.416c.072-.073.072-.135.134-.208.061-.073.133 0 .133.073-.072.478 0 1.04-.072 1.508a3.5 3.5 0 01-1.029 2.082c-.205.135-.411.27-.545.072-.134-.197-.072-.343-.072-.551.101-.36.17-.73.206-1.103a6.354 6.354 0 00-.412-1.717l.031-.01z" fill="#754090"/><path d="M7.398 11.748h-.072a.336.336 0 00-.38.192.347.347 0 00-.031.15c.063.564.3 1.092.679 1.51a.063.063 0 00.042.07.06.06 0 00.03.002V13.6c.198-.297.357-.62.473-.958.072-.478-.473-.76-.751-.894h.01z" fill="#1B2747"/><path fill-rule="evenodd" clip-rule="evenodd" d="M2.984 7.21c-.072-.207.134-.343.268-.207.447.42.856.88 1.224 1.373.34.479.751 1.103 1.09 1.509.34.406 1.03.957 1.03 1.509 0 .208-.607 1.581-.885 1.654-.278.073-.34-.073-.412-.27A32.904 32.904 0 002.984 7.21z" fill="#754090"/><path d="M2.171 6.732c1.129 1.619 2 3.406 2.583 5.296.072.209-.072.344-.206.209a27.244 27.244 0 00-3.396-2.342c0-.072-.072-.135-.072-.208a19.26 19.26 0 01.546-1.852c.153-.327.243-.68.267-1.04 0-.136.134-.208.268-.136v.073h.01zM8.89 12.85v.136a2.482 2.482 0 01-.473 1.238l-.072.073-.072-.073-.206-.208a.062.062 0 01-.072-.073v-.135c.17-.348.284-.72.34-1.103.072-.135.205-.208.267-.136l.268.271.02.01zm-1.553 1.03a.25.25 0 01.072.209.093.093 0 01.028.067.094.094 0 01-.028.068.72.72 0 01-.813.208c-.268-.073-.474-.343-.68-.551-.071 0-.071-.073-.133-.136a.314.314 0 010-.343c.072-.073.134-.135.206-.135a4.82 4.82 0 00.411-.614c.072-.136.34-.073.412.135.11.4.296.774.545 1.103l-.02-.01z" fill="#1B2747"/><path fill-rule="evenodd" clip-rule="evenodd" d="M11.813.479c.071.073-.608.686-1.03.957h-.133c-.072.073-.072 0-.134 0a1.018 1.018 0 00-1.152.343c-.249.307-.434.66-.546 1.04a13.988 13.988 0 00-.473 1.582c-.08.493-.266.962-.546 1.374h-.205c-.326-.338-.67-.657-1.03-.957v-.073c-.071-.073 0-.135.073-.135.206-.209.473-.417.75-.687.267-.411.495-.847.68-1.3.134-.417.34-.76.473-1.166.064-.173.154-.335.268-.479a1.296 1.296 0 011.09-.416c.588-.08 1.178-.125 1.77-.135 0 0 .134 0 .134.072l.01-.02z" fill="#00A3D3"/><path d="M6.72 4.256c-.073.073-.135 0-.135-.073a2.272 2.272 0 000-1.166 4.344 4.344 0 01-.072-.822c-.072-.072 0-.072 0-.135.134-.073.206 0 .268.135.017.258.062.513.134.76a.52.52 0 00.133.343c.073.073.072.073.134.073a.27.27 0 01.134.27 1.506 1.506 0 01-.268.344c-.133.135-.205.27-.34.27h.011zm1.975-.136h-.072l.473-1.3c.134-.479.751-1.447 1.225-1.238.473.208-1.287 1.852-1.636 2.538h.01z" fill="#1B2747"/><path fill-rule="evenodd" clip-rule="evenodd" d="M14.2 18.074c.129-.306.219-.628.267-.957a8.523 8.523 0 00-.133-1.301 3.772 3.772 0 010-1.238 1.25 1.25 0 00-.134-.687.938.938 0 00-.268-.208c-1.636-.822-1.903-1.852-1.903-1.446-.134.822.411.957.679 1.238.234.246.485.475.75.687.073.072.207.135.268.27a.515.515 0 01.072.343c.07.178.07.375 0 .552-.072.073-.072.135-.133.135-.062 0-.134 0-.134-.073-.473-.416-1.626-2.08-1.698-1.654-.072.427-1.029.343-1.029.343s.813.76 1.09 1.103a3.5 3.5 0 01.752 1.509c.112.544.157 1.1.134 1.654a1.178 1.178 0 000 .687c0 .073-.072.822.411.76.484-.063.947-1.509 1.03-1.717H14.2z" fill="#E31145"/><path d="M11.205 11.748c-.545-.344-.267 1.3-.072 1.925a.235.235 0 00.134.072h.072c.19-.257.284-.574.268-.894 0 0 .134-.823-.412-1.104h.01zm4.075 2.746l.134.136v.208l-.134.614a.137.137 0 01-.084.09.133.133 0 01-.121-.018.154.154 0 00-.22.115.158.158 0 00.014.094c.005.168.051.332.133.478a3.965 3.965 0 010 1.79 3.502 3.502 0 01-.75 1.509 2.415 2.415 0 01-.752.614c-.134 0-.267 0 .072-.344a5.38 5.38 0 001.09-1.509 2.753 2.753 0 00-.071-2.403 2.935 2.935 0 010-1.103 1.54 1.54 0 00.072-.552c0-.135.134-.135.206-.072l.411.353z" fill="#1B2747"/><path fill-rule="evenodd" clip-rule="evenodd" d="M4.136 15.524a7.922 7.922 0 01-1.77-1.165.945.945 0 00-.205-.27 1.177 1.177 0 01-.072-.479.747.747 0 01.133-.551l.412-.209a1.86 1.86 0 01.607-.072.625.625 0 01.412.27c.072.135.072.27.134.344.072.225.187.433.34.613.205.29.432.566.678.822.134.136.34.27.474.417.133.145.205.135.205.208 0 .072.072.687-1.358.072h.01z" fill="#00A3D3"/><path d="M2.099 12.913l-.134.135h-.134a.946.946 0 01-.205-.27 4.482 4.482 0 01-.268-.895c0-.136 0-.27.134-.344.134-.072.267-.135.412-.135.144 0 .205.135.267.208.22.208.382.47.473.76.206.208-.34.27-.545.551v-.01zm-.813.073c.134.135.206.27.34.416.134.146.072.135.072.208 0 .073-.072.208-.134.208H1.43a.616.616 0 01-.411-.416 2.931 2.931 0 01-.412-.957.978.978 0 01-.072-.614c0-.073.072-.27.206-.135s.267.957.545 1.3v-.01z" fill="#1B2747"/><path d="M4.548 15.941a2.291 2.291 0 01-1.029-.416 5.687 5.687 0 01-1.564-1.239l-.206-.208a.245.245 0 01-.206-.072 1.117 1.117 0 01-.812-.614 4.091 4.091 0 00-.412-.958c0-.072-.072-.135-.134-.072l-.072.072a.954.954 0 00-.072.76.923.923 0 00.412.479c.281.191.534.422.75.686.328.51.768.934 1.287 1.239a4.21 4.21 0 003.087.551.137.137 0 00-.017-.176.132.132 0 00-.055-.032c-.34.07-.69.07-1.029 0h.072zM12.09 1.987c-.072-.135-.133-.135-.205-.135a.865.865 0 00-.474.343 1.178 1.178 0 000 .687c.27 1.638.75 3.234 1.43 4.745a1.908 1.908 0 00.134-1.717 17.283 17.283 0 01-.607-1.717 3.798 3.798 0 01-.072-1.238c.034-.228.034-.46 0-.687a.946.946 0 00-.205-.27v-.01zm.68 6.254a1.25 1.25 0 01-.947.551c-.36.061-.726.086-1.09.073.001.01 0 .02-.003.03a.063.063 0 01-.04.041.061.061 0 01-.03.002c-.072.073-.072.135 0 .27.081.155.15.315.206.48a.062.062 0 00.017.055.062.062 0 00.055.017h.134c.312-.068.635-.068.946 0 .34 0 .607.135.885 0l.134-.135V8.73a.525.525 0 00-.072-.343.24.24 0 00-.206-.136l.01-.01z" fill="#1B2747"/><path fill-rule="evenodd" clip-rule="evenodd" d="M11.617 10.072c-.134 0-.267 0-.34.136-.071.135 0 .208.073.343.269.432.618.806 1.029 1.103.133.073.34.135.473 0 .134-.135.134-.344.072-.479a1.3 1.3 0 00-.134-.551.24.24 0 00-.072-.136.24.24 0 01.072-.135v-.073a.304.304 0 00-.206-.27 4.432 4.432 0 00-.946.073l-.02-.01zm-1.368-1.685a.136.136 0 00.084.09.132.132 0 00.121-.018A1.67 1.67 0 0111 8.387c.301.028.605-.019.885-.136a.358.358 0 00.267-.208c0-.073-.072-.135-.072-.208a7.485 7.485 0 01-.679-2.403c0-.136-.072-.271-.206-.271a.061.061 0 00-.055.017.063.063 0 00-.017.056c-.18.216-.298.48-.34.76-.133.478-.205.894-.339 1.373-.072.27-.134.479-.206.76v.27l.01-.01z" fill="#E10585"/><path d="M11.206 4.058v-.229L11 2.591c-.072-.073-.072-.135-.134-.135h-.072a2.747 2.747 0 00-.34.614 3.47 3.47 0 00.072 1.852c.072 0 .072.135.134.073.062-.063.546-.552.546-.958v.021zm-.957 1.228c-.072.135-.268.27-.412.416a4.14 4.14 0 01-.545.552c-.072.073-.134.073-.206.135-.134 0-.206-.135-.134-.208.072-.073.134-.208.206-.27.072-.063.545-.687.813-1.041.133-.135.267-.073.34.073a.515.515 0 01-.073.343h.01zm2.726-3.09a.061.061 0 01-.07-.043.062.062 0 01-.002-.03h-.072a3.498 3.498 0 01.34-1.582c.072-.073.206-.073.206.073a6.437 6.437 0 01-.268 1.582c0 .072-.134.072-.134 0zM15.393.708a.254.254 0 01.072-.199.247.247 0 01.196-.072l.545.135c.134 0 .206 0 .268.073a.624.624 0 01.206.479.883.883 0 01-.072.416 2.952 2.952 0 00-.134.76c0 .072 0 .135-.072.135h-.134a1.457 1.457 0 01-.751-.687 2.377 2.377 0 01-.134-1.04h.01z" fill="#1B2747"/><path d="M13.654.27c-.072-.135.134-.27.268-.27.22.091.446.161.679.208.072.073.072.073.134.073a.514.514 0 01.072.343c-.033.38.038.762.206 1.103.172.278.404.513.679.687.133.135.34.208.411.416v.073h-.072c-.177.08-.36.15-.545.208-.19.124-.351.287-.473.479-.134.208-.206.478-.34.687-.134.208-.134.27-.34.27-.205 0-.267-.073-.411-.208a2.419 2.419 0 01-.34-.895l-.206-.416c-.071 0-.071-.073 0-.135A6.866 6.866 0 0013.645.28l.01-.01z" fill="#F27E04"/><path d="M15.075 4.672c-.268.551-.34 1.165-.607 1.654a8.05 8.05 0 01-.608 1.04c0 .074-.072.209 0 .271a.246.246 0 00.206.073c.072 0 .134-.073.206-.135l.412-.416c.427-.577.793-1.198 1.09-1.852a4.64 4.64 0 00.34-1.301c0-.135-.134-.208-.206-.135-.32.22-.595.499-.813.822l-.02-.021zm-.535.478a4.71 4.71 0 01-.546 1.655c-.072.073-.072.135-.206.208-.072 0-.072-.135-.072-.208.146-.544.26-1.097.34-1.654.072-.136.134-.136.267-.136.134 0 .134.073.206.136h.01zm3.055-4.047c.072 0 .134 0 .134.073a.24.24 0 01.072.135 2.47 2.47 0 01-.134.687c-.083.329-.196.65-.34.957l-.071.073c-.072.073-.134 0-.206 0-.072 0-.134-.073-.206-.073l-.072-.073V2.79c.072-.417.134-.895.206-1.301 0-.135.072-.27.072-.416 0-.146.206-.208.268-.136.061.073.205.073.267.136l.01.031z" fill="#1B2747"/><path d="M16.299 4.87a10.038 10.038 0 01-1.904 3.121c0 .073.134.073.206.073.072 0 .134-.073.206-.135.457-.442.845-.95 1.152-1.509.1-.236.213-.465.34-.687a7.292 7.292 0 00.412-2.268c0-.135-.134-.135-.134-.073-.072.27-.206 1.238-.268 1.446l-.01.032z" fill="#F27E04"/><path d="M11.277 19.51a.42.42 0 00-.072-.27 2.447 2.447 0 01-.679-1.51.253.253 0 00-.072-.207.935.935 0 00-.545-.344c-.072 0-.072 0-.134.073-.062.073-.072.073-.134.135-.179.483-.27.994-.267 1.51.072.55.267 1.716.946 1.924.206.073.68-.895.947-1.3l.01-.011zM11 18.48a1.764 1.764 0 01-.268-1.103c0-.073.072 0 .072 0 .068.13.159.246.268.343.206.208.607.27.885.479.153.144.291.305.411.478v.073c.002.01.002.02-.001.03a.063.063 0 01-.041.041.06.06 0 01-.03.002c-.072.135-.133.135-.267.27a.24.24 0 00-.072.136.204.204 0 01-.268 0 3.212 3.212 0 01-.679-.76l-.01.01z" fill="#1B2747"/><path d="M10.454 15.39a1.147 1.147 0 000-.823c-.072-.072-.133-.135-.205-.135-.072 0-.206-.135-.268-.073-.062.063-.134.073-.206.136a3.238 3.238 0 00-.946 1.852c-.134.686-.34 2.538-.34 2.611a.883.883 0 01-.072.417c0 .135 0 .343.072.416l.268.27c.061.063.267.073.411.136.144.062.134-.073.134-.209a.525.525 0 01-.072-.343c-.072-.135-.607-.957.267-2.747.072-.135.34 0 .474.073.133.073.411.27.473.135s-.072-1.165 0-1.717h.01z" fill="#F27E04"/><path d="M9.714 14.089H9.58a2.067 2.067 0 00-.813.76 3.661 3.661 0 00-.545 1.165 4.058 4.058 0 00-.134.895c.034.346.034.694 0 1.04a.357.357 0 01-.134.27h-.072v.073a2.49 2.49 0 00-.134.76.883.883 0 00-.072.416c.1.209.267.377.474.479h.04c.073-.073.073-.073.073-.135-.009-.598.015-1.195.072-1.79a8.297 8.297 0 01.267-2.268 2.92 2.92 0 011.091-1.447.21.21 0 00.072-.135l-.051-.083z" fill="#1B2747"/><path fill-rule="evenodd" clip-rule="evenodd" d="M21.567 7.076c.134.208.072.478.134.686a.24.24 0 00.072.136.125.125 0 00.103.055.122.122 0 00.103-.055c.072 0 .206-.073.267-.073.062 0 .268.135.206.27a5.581 5.581 0 01-2.377 1.998 1.296 1.296 0 01-.679.208c-.134.073-.206.073-.267 0a.332.332 0 01-.134-.416 9.485 9.485 0 001.831-2.955l.072-.073c0-.135.206-.208.34-.135a.828.828 0 01.34.343l-.01.01z" fill="#E31145"/><path d="M21.567 6.524c.607-.343.68-1.165 1.225-1.582a.45.45 0 01.411-.072.352.352 0 01.134.27.57.57 0 01-.072.479 2.87 2.87 0 01-.607 1.103c-.134.27-.412.478-.412.76v.135a.683.683 0 01-.205-.073c-.134-.27-.134-.479-.34-.687 0-.073-.072-.135-.134-.208v-.135.01zm3.087-.894c.063.106.108.222.134.343a1.514 1.514 0 01-.206.343 1.397 1.397 0 01-.545.551l-.072.073c-.072 0-.072-.073-.134-.073a1.633 1.633 0 01-.34-.894 1.96 1.96 0 01.268-.895c.072-.073.072-.136.134-.136a.204.204 0 01.267 0c.177.215.336.445.474.687h.02zm.35.894a.164.164 0 01.268.073c.07.075.116.169.133.27-.072.073-.133.209-.206.271-.411.416-1.028.687-1.43 1.103a7.265 7.265 0 00-.679.822c-.473.416-.947.822-1.43 1.165-.393.255-.802.485-1.225.687a1.72 1.72 0 01-1.029 0 .143.143 0 01-.091-.042.147.147 0 01-.042-.093c0-.073.072-.073.133-.073a5.124 5.124 0 002.583-1.3 28.141 28.141 0 012.058-1.926c.328-.286.625-.607.885-.957h.072zm-1.77-.062c-.206 0-.545.822-.411 1.238 0 .073 0 .135.072.135h.072a.906.906 0 00.473-.551c.072-.208.072-.895-.206-.822z" fill="#1B2747"/><path fill-rule="evenodd" clip-rule="evenodd" d="M16.299 22.559c.221.058.45.082.68.072l.75-.208a.512.512 0 00.268-.135c.267-.135.411-.479.545-.687.134-.208.751-.135 1.09-.343.135-.073.135-.27.207-.343.072-.073 0-.073.072-.136h.133c.268-.073.546-.073.752-.135a.641.641 0 01.473.135.253.253 0 01-.072.208c-.473 1.717-3.674 2.269-4.013 2.342a.603.603 0 01-.34.072c-.134 0-.206-.073-.34-.135-.133-.062-.133-.208-.205-.27-.072-.063-.072-.479 0-.417v-.02z" fill="#00A3D3"/><path d="M16.165 22.195c-.072-.073 0-.271.072-.271a3.113 3.113 0 001.976-.552c.133-.135 0-.416.206-.416.342.036.686.036 1.029 0a.236.236 0 01.133.073c-.072.073-.072.135-.133.135-.268.063-.54.108-.813.136-.206.072-.268.343-.474.614-.206.27-.946.478-1.152.551-.206.073-.68 0-.813-.27h-.03zm.618 1.581a.063.063 0 01.017-.056.061.061 0 01.055-.017 12.727 12.727 0 002.994-.957 3.108 3.108 0 001.564-1.717c0-.135.134.073.134.073a.123.123 0 01.055.104.126.126 0 01-.055.104 3.244 3.244 0 01-1.492 1.654 16.28 16.28 0 01-2.45.895c-.473.208-.678.073-.812-.073l-.01-.01zm1.491-6.867c.073-.136.206-.136.206-.073.286.415.491.881.607 1.373a.304.304 0 010 .344c0 .072-.072.072-.133.135-.3.241-.653.405-1.03.479-.071 0-.071 0-.071-.073a2.208 2.208 0 01.411-2.196l.01.01z" fill="#1B2747"/><path fill-rule="evenodd" clip-rule="evenodd" d="M18.274 15.806l.073.416a.253.253 0 01-.073.208 1.572 1.572 0 00-.545.822 3.07 3.07 0 00-.133 1.373v.344a.946.946 0 01-.206.27c-.268.208-1.225.27-1.492-.343-.072-.073-.072-.135-.072-.27 0-.136.267-.823.34-1.166.071-.343.071-.687.071-.895a.144.144 0 01.134-.135l1.636-.76c.134-.072.267 0 .267.136z" fill="#E10585"/><path d="M15.96 19.583c.133.072.545.072.678.135.134.062.134.27 0 .416a3.55 3.55 0 01-1.224.687 3.352 3.352 0 01-1.358.208c-.072-.073-.206-.343.134-.552.504-.293.942-.69 1.286-1.165a.063.063 0 01.017-.056.062.062 0 01.055-.017c0-.073.133-.073.133 0 .053.14.147.259.268.344h.01zm3.55-.417v.073a.062.062 0 01-.073.073c-.413.32-.87.575-1.358.76 0 .073-.072.073-.134.073-.061 0-.134-.344-.072-.417.062-.072.206-.208.268-.27.386-.12.738-.33 1.029-.614.072-.073.205-.073.205 0s.134.208.134.343v-.02z" fill="#1B2747"/><path d="M17.657 19.79c-.267.209-.545.552-.813.76a4.38 4.38 0 01-2.716.822c-.134.073-.134-.208 0-.208.576 0 1.15-.091 1.698-.27.679-.27 1.152-.958 1.831-1.166 0-.073.072-.073.072 0l-.072.063z" fill="#1B2747"/><path fill-rule="evenodd" clip-rule="evenodd" d="M3.53 17.18c-.134.343-.34.613-.474.957a.977.977 0 00.072.957c.134.208.34.27.473.416.279.2.51.46.68.76.185.41.413.801.679 1.165.4.337.91.508 1.43.479a6.634 6.634 0 001.626-.344c.072-.073.205-.208.133-.343a2.61 2.61 0 00-1.029-.687c0-.073-.072-.073-.133-.073h-.34a1.925 1.925 0 01-1.492-.416 3.356 3.356 0 01-.946-1.238 10.714 10.714 0 01-.474-1.582l-.134-.135-.072.073v.01z" fill="#E10585"/><path d="M4.342 17.106c-.133.073-.133.135-.133.208.003.648.216 1.276.607 1.79.175.335.434.619.75.822.296.227.658.348 1.03.344.072 0 .133-.073.205-.136A.24.24 0 006.73 20c-.411-.416-.812-.76-1.224-1.165a4.75 4.75 0 01-.885-1.374c-.072-.135-.206-.416-.267-.343l-.01-.01zM3.19 19.51c.078.341.123.69.134 1.04a.515.515 0 00.072.344c.072 0 .072.073.133.073h.134c0-.073 0-.073.072-.073 0-.208.072-.344.072-.552v-.27c0-.073 0-.073-.072-.136a.919.919 0 00-.473-.416s-.072-.072-.072 0v-.01z" fill="#1B2747"/><path d="M25.745 14.36c0-.136-.134-.209-.268-.136a3.272 3.272 0 01-1.224.479 1.02 1.02 0 00-.607.135c-.206.073-.268.27-.412.416-.353.405-.67.84-.947 1.3-.072.074-.072.209.134.209a3.566 3.566 0 001.204-.448c.234-.206.485-.39.751-.55.34-.209.752-.209 1.091-.417.34-.208.268-.614.268-.957l.01-.032z" fill="#F27E04"/><path d="M19.365 15.806c-.072.072.072.208.134.27.58.36 1.229.593 1.904.687a.246.246 0 00.205.073c.072-.073.134-.073.206-.136.607-.551.68-1.508 1.286-1.997a9.27 9.27 0 01.68-.208 7.54 7.54 0 00.884-.344 1.52 1.52 0 01.34-.208.189.189 0 00-.134-.27c0 .072-.072.072-.134.072a3.054 3.054 0 01-1.09-.208.686.686 0 00-.607-.135.94.94 0 00-.268.208c-.34.343-.545.76-.885 1.103-.242.37-.607.64-1.029.76a5.88 5.88 0 00-1.492.343v-.01zm4.815 1.3c-.133-.073.073-.76.207-1.04.154-.154.34-.27.545-.344.072-.072.206.073.134.136a4.04 4.04 0 00-.68 1.165c-.071 0-.071.073-.205.073v.01zm-13.52 7.149a.167.167 0 00-.072-.27c-.134 0-.411-.074-.473-.074a2.037 2.037 0 00-1.564.479c-.072 0 0 .135.072.135a.247.247 0 01.206-.073 2.91 2.91 0 011.09-.073c.268 0 .474.073.68-.072a.06.06 0 00.054-.017.062.062 0 00.017-.056l-.01.02zm1.904-2.737c.134-.073.134-.27-.072-.343a2.505 2.505 0 00-1.358-.136 2.656 2.656 0 00-.546 1.166 8.398 8.398 0 01-.34 1.238c-.071.073 0 .135.134.208a.854.854 0 01.412.073c.072 0 .134 0 .134-.073.134-.27.267-.614.411-.895a1.628 1.628 0 01.813-.957.512.512 0 01.268-.135h.072c0-.073.072-.073.072-.136v-.01z" fill="#1B2747"/><path fill-rule="evenodd" clip-rule="evenodd" d="M9.713 21.851c-.205.208-.34.479-.545.687a4.52 4.52 0 00-.947.614.84.84 0 00.072 1.04c0 .073.072.073.134 0 .105-.149.247-.267.412-.343h.072v-.073a2.457 2.457 0 011.029-.208c.072 0 .072 0 .133-.073.055-.145.124-.285.206-.416v-.281l.072-.073v-.27c.059-.284.149-.56.268-.822a1.22 1.22 0 01.34-.552 5.32 5.32 0 00-1.225.76l-.02.01z" fill="#754090"/><path d="M9.034 21.3a.06.06 0 01.055.017.063.063 0 01.017.055c.014.232-.01.464-.072.687a.876.876 0 01-.545.552c.136-.407.249-.82.34-1.239 0-.072 0-.072.072-.072v-.073c.072 0 .072 0 .133.073z" fill="#1B2747"/><path fill-rule="evenodd" clip-rule="evenodd" d="M4.208 38a.834.834 0 01.206-.135c.215-.026.421-.097.607-.208.134 0 .268-.073.412-.073.144 0 .134-.073.267-.073.134 0 .134-.073.206-.135a.602.602 0 00.34-.073.408.408 0 00.267-.073.612.612 0 00.34-.073h.134a.247.247 0 01.206-.073c.111-.03.225-.055.34-.073.071 0 .071 0 .133-.072h.206c.133 0 .267-.073.411-.073.144 0 .072 0 .134-.073h.206c.134 0 .267-.073.411-.073a.245.245 0 00.206-.073h.206c.134 0 .267-.072.412-.072.16.009.322-.016.473-.073h.412a1.14 1.14 0 01.473-.073c.267 0 .607-.073.885-.073h.473c.134 0 .268-.073.473-.073h2.058a.51.51 0 00.268.073h.885c.152.053.312.078.473.073h.206a.408.408 0 01.267.073h.412c.552.045 1.099.135 1.636.27.545.073 1.09.208 1.492.27a.244.244 0 01.206.074h.134c.133 0 .205.072.34.072.133 0 .071.073.133.073h.134a.51.51 0 00.267.073c.412.135.68.208.947.27.186.112.393.182.607.209.075.034.144.08.206.135a.297.297 0 00-.206-.073h-.268a.612.612 0 00-.34-.073.245.245 0 01-.205-.072h-.267c-.134 0-.34-.073-.546-.073a.51.51 0 01-.267-.073h-.268a.602.602 0 01-.34-.073h-.339c-.134 0-.206-.073-.34-.073h-.34c-.133 0-.267-.073-.41-.073h-.412a.855.855 0 00-.412-.073h-.411c-.073 0-.134-.072-.206-.072h-.607a.857.857 0 01-.412-.073h-.885a1.14 1.14 0 01-.473-.073h-3.602c-.072.073-.072.073-.133.073h-1.225a.857.857 0 01-.411.073h-.474c-.133 0-.267.072-.411.072h-.412c-.134 0-.267.073-.411.073a9.16 9.16 0 00-1.43.136c-.474.072-.886.072-1.287.135-.134 0-.34.073-.473.073h-.268a.247.247 0 01-.206.072.51.51 0 00-.34.073h-.267a.296.296 0 00-.205.073V38z" fill="#141B53"/><path fill-rule="evenodd" clip-rule="evenodd" d="M35.397 28.52V12.435l6.256 8.387h1.214l6.184-8.387v16.087h1.976V9.344h-1.904l-6.863 9.281-6.863-9.281h-2.038V28.52h2.038zm29.634-16.772l4.28 9.687h-8.643l4.363-9.687zM57.694 28.51l2.316-5.296H70l2.315 5.296h2.171L65.988 9.198h-1.904L55.585 28.51h2.11zM81 11.196h6.421c2.583 0 4.116 1.238 4.116 3.434 0 2.195-1.492 3.434-4.116 3.434h-6.39l-.03-6.868zm0 17.314v-8.594h5.845l5.917 8.594h2.377l-6.112-8.792a4.993 4.993 0 003.254-1.71 5.102 5.102 0 001.232-3.493c0-3.121-2.315-5.202-5.978-5.202h-8.5V28.49l1.966.02zm19.562-19.166V28.52h2.047v-9.76l10.053 9.76h2.85l-10.804-10.385 9.312-8.792h-2.644l-8.767 8.314V9.344h-2.047z" fill="#1B2747"/><path d="M121.769 9.344h-2.038V28.52h2.038V9.344z" fill="#1B2747"/><path fill-rule="evenodd" clip-rule="evenodd" d="M134.003 28.864a8.321 8.321 0 004.96-1.446 4.768 4.768 0 001.539-1.765 4.834 4.834 0 00.519-2.293 4.494 4.494 0 00-.303-1.785 4.425 4.425 0 00-.984-1.514 5.3 5.3 0 00-1.492-1.103 14.086 14.086 0 00-1.625-.686 12.544 12.544 0 00-1.904-.614l-1.091-.344-1.224-.343-.885-.343a2.111 2.111 0 01-.885-.417 2.525 2.525 0 01-.901-.933 2.576 2.576 0 01-.324-1.262c0-1.717 1.492-3.122 4.549-3.122 2.082-.015 4.12.609 5.844 1.79v-2.081a11.018 11.018 0 00-5.916-1.582 7.767 7.767 0 00-4.826 1.374c-.54.419-.975.96-1.27 1.58a4.434 4.434 0 00-.428 1.989 4.778 4.778 0 001.152 3.121c.433.382.914.704 1.431.958.607.27 1.224.478 1.697.686.474.209 1.153.344 1.976.614.486.105.964.244 1.43.416l1.225.417c.401.144.787.328 1.152.551.485.233.891.605 1.169 1.07.278.463.415 1 .395 1.542 0 2.195-2.171 3.642-5.145 3.642a10.797 10.797 0 01-3.869-.76 8.85 8.85 0 01-2.994-1.717v2.341a12.36 12.36 0 007.069 1.998l-.041.021z" fill="#1B2747"/></g><defs><clipPath id="clip0_1_1216"><path fill="#fff" d="M0 0h141v38H0z"/></clipPath></defs></svg>