<svg width="110" height="41" viewBox="0 0 110 41" fill="none" xmlns="http://www.w3.org/2000/svg"><g clip-path="url(#clip0_1_1302)"><path fill-rule="evenodd" clip-rule="evenodd" d="M41.759 8.234h-5.773L44.166 0h5.759l-8.18 8.234h.014z" fill="#D02229"/><path d="M18.247 24.9a40.626 40.626 0 00-6.505-1.87c-3.07-.751-5.026-1.418-5.758-2.155a3.258 3.258 0 01-1.113-2.621 3.676 3.676 0 01.401-1.746c.275-.539.68-1 1.176-1.344a8.194 8.194 0 015.111-1.304 7.664 7.664 0 015.026 1.418 6.206 6.206 0 012.042 3.925h3.716a8.669 8.669 0 00-1.492-4.591 7.443 7.443 0 00-3.815-3.09 13.341 13.341 0 00-5.632-1.12c-1.846 0-3.676.35-5.392 1.035a8.117 8.117 0 00-3.633 2.834 7.633 7.633 0 00-1.21 4.252 6.01 6.01 0 001.027 3.656 7.537 7.537 0 003.07 2.835 24.06 24.06 0 005.631 1.771c2.605.652 4.365 1.22 5.111 1.503a6.104 6.104 0 012.703 1.686c.47.726.729 1.57.746 2.438a4.128 4.128 0 01-.83 2.522 5.269 5.269 0 01-2.506 1.871c-1.245.473-2.57.695-3.9.652a11.199 11.199 0 01-4.463-.836 7.403 7.403 0 01-2.816-2.339A6.887 6.887 0 013.73 31.01H-.056a9.74 9.74 0 001.587 5.257 9.646 9.646 0 004.171 3.544 17.073 17.073 0 006.603 1.12c1.935.03 3.854-.352 5.632-1.12a9.322 9.322 0 003.815-3.274 7.404 7.404 0 001.296-4.394 7.22 7.22 0 00-1.211-4.251 8.162 8.162 0 00-3.717-2.99h.127zM60.09 0h-4v41h3.999V17.035a4.246 4.246 0 011.492-1.87 8.516 8.516 0 015.21-1.305A7.777 7.777 0 0172 15.363a4.923 4.923 0 011.505 1.763c.355.7.539 1.475.536 2.261v21.627h3.9l-.099-21.81a8.073 8.073 0 00-1.408-4.593 9.034 9.034 0 00-3.9-3.09 14.334 14.334 0 00-5.955-1.119 15.71 15.71 0 00-5.026.837l-1.492.566L60.09 0zM39.267 10.388a15.036 15.036 0 00-8.41 2.545 15.185 15.185 0 00-5.581 6.823 15.3 15.3 0 00-.87 8.795 15.238 15.238 0 004.136 7.797 15.076 15.076 0 007.746 4.163 15.01 15.01 0 008.737-.875 15.13 15.13 0 006.778-5.62 15.28 15.28 0 002.528-8.464 15.18 15.18 0 00-1.128-5.814 15.098 15.098 0 00-3.263-4.93 14.989 14.989 0 00-4.897-3.285 14.909 14.909 0 00-5.776-1.135zm0 26.927a11.594 11.594 0 01-7.96-3.567 11.747 11.747 0 01-3.265-8.132c0-3.034 1.17-5.95 3.264-8.132a11.595 11.595 0 017.96-3.567 11.595 11.595 0 017.961 3.567 11.747 11.747 0 013.264 8.132c0 3.034-1.17 5.95-3.264 8.132a11.595 11.595 0 01-7.96 3.567zm55.795-23.398c2.3 0 4.549.687 6.461 1.973a11.69 11.69 0 014.283 5.253 11.78 11.78 0 01.662 6.764 11.728 11.728 0 01-3.183 5.994 11.604 11.604 0 01-5.954 3.203 11.56 11.56 0 01-6.72-.666 11.646 11.646 0 01-5.218-4.311 11.761 11.761 0 01-1.96-6.504 11.788 11.788 0 013.418-8.265 11.633 11.633 0 018.211-3.441zM110 25.666v-.1a15.257 15.257 0 00-4.451-10.729 15.056 15.056 0 00-10.68-4.428 15.057 15.057 0 00-10.667 4.463 15.258 15.258 0 00-4.416 10.744 15.26 15.26 0 004.416 10.744 15.057 15.057 0 0010.667 4.463 15.056 15.056 0 0010.68-4.428A15.257 15.257 0 00110 25.665z" fill="#000"/></g><defs><clipPath id="clip0_1_1302"><path fill="#fff" d="M0 0h110v41H0z"/></clipPath></defs></svg>