<svg width="100" height="64" viewBox="0 0 100 64" fill="none" xmlns="http://www.w3.org/2000/svg"><g clip-path="url(#clip0_1_1305)" fill="#000"><path d="M19.02 1.91l4.82 11.16h2.49L21.91 2.83l30 3.43 30 3.5-2.44 3.3h2.91l2.64-3.57 1.19-1.65-2-.2-32-3.7-32-3.7-2-.26.81 1.93zm35.14 45.42l-8.19 11-4.76-11h-2.58l6 13.8.79 1.92 1.21-1.72 10.43-14h-2.9zm18.88-7h1.52v-.79h-2.38v5.61h2.38v-.82h-1.52v-1.6h1.29v-.79h-1.25l-.04-1.61zm-2.77 0c.33 0 .46.2.46.59v.53c0 .46-.2.59-.53.59h-.33v-1.71h.4zm1.45 4.82a2 2 0 01-.13-.66v-.86c0-.59-.13-1.06-.59-1.25.4-.13.59-.53.59-1.12v-.4c0-.92-.4-1.32-1.25-1.32h-1.39v5.61h.92v-2.31h.26c.4 0 .59.2.59.73v.92c.009.221.032.442.07.66h.93zm-6-1.39c0 .92.46 1.45 1.32 1.45a1.3 1.3 0 001.39-1.45v-2.91a1.28 1.28 0 00-1.39-1.39 1.231 1.231 0 00-1.32 1.39v2.91zm.86-2.91c0-.4.2-.59.46-.59s.46.2.46.59v3c0 .4-.13.59-.46.59s-.46-.2-.46-.59v-3zm-3.9-.53h.92v4.82h.86v-4.81h1v-.79h-2.77l-.01.78zm-2.84.53c0 1.59 1.72 1.85 1.72 3 0 .4-.13.59-.46.59s-.46-.2-.46-.59v-.4h-.79v.33c0 .92.4 1.45 1.32 1.45s1.25-.53 1.25-1.45c0-1.59-1.72-1.78-1.72-2.91 0-.4.2-.59.46-.59s.46.2.46.59v.2h.79v-.2c0-.86-.4-1.39-1.25-1.39a1.231 1.231 0 00-1.32 1.39v-.02zm-4.23-.53h.92v4.82h.86v-4.81h.94v-.79h-2.71l-.01.78zm-1.52 0c.26 0 .46.13.46.53v.86c0 .4-.2.53-.46.53h-.4v-1.91l.4-.01zm0-.79h-1.32v5.61h.92v-2.11h.4a1.23 1.23 0 001.32-1.39v-.73a1.21 1.21 0 00-1.32-1.39v.01zm-3.37.79h1.52v-.79h-2.38v5.61h2.38v-.81h-1.52v-1.6h1.19v-.79h-1.19v-1.62zm-2.25 2.71v.79c0 .4-.2.59-.46.59s-.46-.2-.46-.59v-3c0-.4.2-.59.46-.59s.46.2.46.59v.59h.79v-.59c0-.86-.4-1.39-1.25-1.39s-1.32.53-1.32 1.39v2.91c0 .92.4 1.45 1.32 1.45s1.25-.53 1.25-1.45V43l-.79.03zm-3.24 2.11h.86v-5.61h-.76v3.37l-.86-3.37h-1.14v5.61h.79v-4.09l1.11 4.09zm-5.15-1.39c0 .92.46 1.45 1.32 1.45.86 0 1.32-.53 1.32-1.45v-2.91a1.32 1.32 0 00-2.64 0v2.91zm.86-2.91c0-.4.2-.59.46-.59s.46.2.46.59v3c0 .4-.2.59-.46.59s-.46-.2-.46-.59v-3zm-2.18 2.18v.79c0 .4-.13.59-.46.59s-.46-.2-.46-.59v-3c0-.4.2-.59.46-.59s.46.2.46.59v.59h.86v-.59a1.32 1.32 0 10-2.64 0v2.91c0 .92.46 1.45 1.32 1.45.86 0 1.32-.53 1.32-1.45v-.73l-.86.03zm-4.49 2.11h.92v-5.61h-.79v3.37l-.92-3.37h-1.15v5.61h.79v-4.09l1.15 4.09zm-3.94-4.8h1.52v-.79h-2.38v5.61h2.38v-.82h-1.52v-1.6h1.25v-.79h-1.25v-1.61zm-4-.79h-1.25v5.61h.79v-4l.66 4h.8l.66-4v4h.79v-5.61h-1.19l-.59 4-.67-4z"/><path fill-rule="evenodd" clip-rule="evenodd" d="M22.98 41.8a.58.58 0 01.59.53.595.595 0 01-1.19 0 .58.58 0 01.59-.53h.01zm53.76 0a.57.57 0 01.53.53.58.58 0 01-.53.59.59.59 0 01-.59-.59.58.58 0 01.59-.53z"/><path d="M84.93 15.72h4.29l10.5 21.33h-4.39l-10.4-21.33zm4.16 21.2l-4.09.13V17.89l4.09 8.06v10.97zm6.41-21l4.16-.2v19.15l-4.16-8V15.92zm-17.9-.2l-5 21.33h-4.09l4.82-21.33h4.27zm-.59 7.2l1.52-7.2h1.12l4.68 21.33h-4.09l-1.19-4.49h-4.42l.73-3.3h3.1l-1.45-6.34zm-24.57 4v10.1h-3.9V15.78l3.9 11.14zm7.4 9.51h-3.43l-6.93-20.74h3.85l4.82 13.74 4.82-13.74h3.76l-6.89 20.74zm7.73-20.74v21.33h-3.76v-9.09l-.07-.86 3.83-11.38zM37.85 37.02c-3.63 0-5.42-1.52-5.42-4.62V15.72h4.09V32.1c0 .92.73 1.39 2.25 1.39v3.57l-.92-.04zm2-3.57c1.52-.07 2.25-.53 2.25-1.39V15.72h4.09v16.71c0 3.1-1.78 4.62-5.42 4.62h-.92v-3.6zm-20 3.57h-4.16v-21.3h4.16v21.3zm1.19-21.33h3.1c3.63 0 5.42 1.59 5.42 4.69v3.95c0 2.38-1 3.9-3 4.62l3.9 8.12h-4.42l-3.3-8.12h-1.65v-3.3h2.38c1.39 0 2-.4 2-1.32V20.7c0-.86-.66-1.32-2-1.32h-2.38l-.05-3.69zm-21.07 0h13.74v3.64H0l-.03-3.64zm9.18 21.33H5.06V20.47h4.09v16.55z"/></g><defs><clipPath id="clip0_1_1305"><path fill="#fff" d="M0 0h99.73v63.01H0z"/></clipPath></defs></svg>