<svg width="110" height="25" viewBox="0 0 110 25" fill="none" xmlns="http://www.w3.org/2000/svg"><path d="M13.985 8.366c-.818-.243-1.554-.405-2.372-.405-4.334 0-4.907 4.215-4.907 7.862v8.43H0V.828h6.706V4.15h.164C8.015 2.773 10.14.828 12.43.747c.982 0 2.29.162 3.108.486l-1.554 7.133zM32.06 9.5c-.41-2.43-1.882-4.782-4.499-4.782-2.699 0-4.17 2.351-4.58 4.783h9.078zm-9.242 4.135c0 2.918 1.145 6.241 4.662 6.241 2.208 0 3.598-1.297 4.58-3.161l6.133.973c-1.635 4.701-5.725 7.295-10.713 7.295-7.28 0-11.777-5.107-11.777-12.24 0-7.052 3.844-12.645 11.45-12.645 7.769 0 11.204 5.674 11.204 12.726v.81h-15.54zm24.699 10.456H40.81V.666h6.707V24.09zm9.977-21.156h.082C58.885 1.071 61.175.098 63.383.098c2.944 0 4.989 1.054 6.706 3.486C71.561 1.476 74.342.098 77.041.098c6.052 0 7.524 4.458 7.524 9.565v14.59h-6.706v-12.32c0-2.27.082-6.485-3.19-6.485-3.68 0-3.598 4.864-3.598 7.295v11.51h-6.788V12.338c0-2.27.327-6.89-3.19-6.89-3.762 0-3.599 4.864-3.599 7.295v11.51h-6.706V.828h6.706v2.107zm46.372 9.565c0-3.161-1.963-6.566-5.48-6.566-3.434 0-5.315 3.405-5.315 6.566 0 3.08 1.88 6.566 5.316 6.566 3.516 0 5.479-3.486 5.479-6.566zM110 24.172h-6.625v-2.107h-.081c-1.472 1.864-3.517 2.918-5.97 2.918-6.952 0-10.878-6.242-10.878-12.645 0-6.16 3.926-12.32 10.714-12.32 2.453 0 4.58 1.053 6.215 2.917V.747H110v23.425z" fill="#B62C30"/></svg>