<svg width="142" height="44" viewBox="0 0 142 44" fill="none" xmlns="http://www.w3.org/2000/svg"><path d="M69.168 37.962v-7.434h.127l2.23 4.509 2.23-4.51h.11v7.411h-.11V30.76l-2.18 4.509h-.11l-2.178-4.509v7.18l-.119.023zm5.465-1.989v-5.445h.11v5.422c-.016.237.022.476.11.682.142.397.377.718.667.913.152.065.302.142.447.232.162.064.33.091.499.08.226-.013.45-.063.667-.15a1.88 1.88 0 00.608-.242 2.01 2.01 0 00.388-.613c.108-.257.166-.548.17-.844v-5.48h.11v5.422a2.65 2.65 0 01-.17.913 1.43 1.43 0 01-.447.613c-.176.203-.39.335-.617.382-.21.123-.44.174-.667.15a1.156 1.156 0 01-.498-.081l-.499-.231a3.413 3.413 0 01-.447-.463 1.272 1.272 0 01-.28-.612 1.515 1.515 0 01-.109-.683l-.042.035zm4.519 1.989v-7.434h.11v7.249h2.896v.15l-3.007.035zm1.9-7.25v-.184h3.851v.15h-1.841v7.33h-.169v-7.33l-1.841.035zm4.07 7.25v-.15h1.116v-7.1h-1.115v-.184h2.399v.15h-1.175v7.099h1.175v.15l-2.4.035zm2.847 0v-7.434h2.18c.26-.03.52.077.726.3.204.184.36.451.447.763.075.453.075.923 0 1.376-.145.415-.377.761-.667.995a.71.71 0 01.362.097.972.972 0 01.305.284c.148.236.278.491.389.763.044.25.064.506.059.763v.231a2.652 2.652 0 01-.169.914 2.675 2.675 0 01-.498.682 1.101 1.101 0 01-.727.231l-2.407.035zm.11-.15h2.289c.19-.007.379-.058.557-.15a.884.884 0 00.389-.463c.11-.159.205-.338.279-.532a4.268 4.268 0 000-1.376 1.84 1.84 0 00-.28-.613 2.865 2.865 0 00-.388-.462 1.303 1.303 0 00-.557-.15h-2.289v3.745zm0-3.897h2.06a.952.952 0 00.668-.231c.146-.209.276-.437.389-.682a4.268 4.268 0 000-1.376 4.283 4.283 0 00-.389-.682.953.953 0 00-.667-.231h-2.061v3.202zm4.223 4.047v-7.434h1.841c.246.006.49.057.727.15.179.153.346.332.498.532.136.189.232.424.279.682.063.246.1.503.11.763-.01.287-.047.57-.11.844a3.545 3.545 0 01-.28.682 2.75 2.75 0 01-.497.463 1.219 1.219 0 01-.727.23h-.895l2.534 3.053h-.17l-2.533-3.052v-.15h1.056c.232-.005.46-.084.667-.232a.932.932 0 00.448-.462 1.84 1.84 0 00.278-.613 3.07 3.07 0 00.11-.763 2.95 2.95 0 00-.11-.682 2.298 2.298 0 00-.278-.682 3.426 3.426 0 00-.448-.463 2.12 2.12 0 00-.667-.15h-1.69v7.249l-.143.035zm3.682 0l2.18-7.561h.11l2.178 7.56h-.109l-.727-2.52H96.88l-.727 2.52h-.169zm.946-2.671h2.619l-1.343-4.624-1.276 4.624zm3.903 2.67v-7.433h.109l3.573 7.098v-7.098h.11v7.41h-.11l-3.573-7.098v7.098l-.109.024zm4.518 0v-7.433h1.841a2.24 2.24 0 011.174.3c.325.19.614.48.845.844.182.384.333.796.448 1.226.114.413.171.852.169 1.295.008.469-.05.936-.169 1.376a7.25 7.25 0 01-.448 1.225 3.53 3.53 0 01-.845.844c-.372.21-.771.312-1.174.3l-1.841.024zm.11-.15h1.689a1.96 1.96 0 001.115-.3 2.41 2.41 0 00.777-.844 3.4 3.4 0 00.448-1.064 5.83 5.83 0 00.169-1.376 5.686 5.686 0 00-.169-1.294 3.4 3.4 0 00-.448-1.064 2.404 2.404 0 00-.777-.844 1.96 1.96 0 00-1.115-.3h-1.689v7.086zm7.601-2.057a4.618 4.618 0 01-.219-1.527 4.399 4.399 0 01.219-1.445c.301-.89.813-1.616 1.453-2.058a2.785 2.785 0 011.056-.3c.362.019.718.12 1.056.3.669.41 1.204 1.142 1.503 2.058a5 5 0 01.224 1.492c0 .512-.076 1.02-.224 1.491a4.682 4.682 0 01-.616 1.225 5.38 5.38 0 01-.896.844 2.46 2.46 0 01-1.056.232 2.654 2.654 0 01-1.055-.232 3.546 3.546 0 01-.845-.844 3.413 3.413 0 01-.616-1.225l.016-.011zm.152-2.914a3.94 3.94 0 00-.219 1.376c-.013.499.062.995.219 1.445.118.44.309.835.558 1.156.231.365.52.654.844.844.324.151.664.23 1.006.231.342.011.683-.067 1.005-.23.331-.21.634-.495.895-.845a4.64 4.64 0 00.557-1.156c.115-.466.172-.954.169-1.445a5.728 5.728 0 00-.169-1.376 4.637 4.637 0 00-.557-1.156 3.383 3.383 0 00-.895-.844 2.063 2.063 0 00-1.005-.231c-.342.002-.682.08-1.006.23-.324.191-.613.48-.844.845-.249.32-.44.717-.558 1.156zm5.744 3.133v-5.445h.169v5.422c-.016.237.022.476.11.682a.92.92 0 00.278.532c.105.168.239.299.389.381.145.09.295.167.447.232.162.064.33.091.499.08a3.036 3.036 0 001.224-.462 2.02 2.02 0 00.389-.613c.108-.257.166-.547.169-.844v-5.41h.11v5.422a2.686 2.686 0 01-.169.913 2.13 2.13 0 01-.448.613 1.124 1.124 0 01-.616.382 1.09 1.09 0 01-.668.15 1.156 1.156 0 01-.498-.081 6.062 6.062 0 01-.557-.231c-.169-.081-.279-.3-.389-.463a1.278 1.278 0 01-.279-.612 1.526 1.526 0 01-.11-.683l-.05.035zm4.223-5.272v-.173h3.851v.15h-1.841v7.33h-.152v-7.33l-1.858.023zm4.299 7.25v-7.423h.093v7.249h2.897v.15l-2.99.023zm3.513 0v-7.423h2.957v.15h-2.847v3.468h2.787v.232h-2.787v3.468h2.847v.15l-2.957-.046zm3.235-7.25v-.173h3.852v.15h-1.842v7.33h-.109v-7.33l-1.901.023z" fill="#141515"/><path d="M8.475 30.782l.11-3.283-1.445-9.931 16.622 16.035 1.335.382M2.394 7.035l1.503 17.712" stroke="#141515" stroke-width=".23" stroke-miterlimit="10"/><path fill-rule="evenodd" clip-rule="evenodd" d="M7.14 16.804l.22.081.169.15.11.301.059.231-.06.312-.11.301-.168.08-.22.151-.228-.15-.169-.081-.11-.3-.059-.313.06-.231.11-.3.168-.15.228-.082z" fill="#DD2A1B"/><path d="M7.14 16.804l.22.081.169.15.11.301.059.231-.06.312-.11.301-.168.08-.22.151-.228-.15-.169-.081-.11-.3-.059-.313.06-.231.11-.3.168-.15.228-.082z" stroke="#141515" stroke-width=".23" stroke-miterlimit="10"/><path d="M43.45 19.556a16.572 16.572 0 010-8.937 14.477 14.477 0 011.782-3.665c.771-1.06 1.679-1.914 2.678-2.52 1.01-.604 2.102-.916 3.205-.916 1.103 0 2.194.312 3.205.916 1.007.587 1.917 1.444 2.678 2.52.774 1.038 1.38 2.287 1.782 3.665.442 1.412.67 2.932.67 4.469 0 1.536-.228 3.056-.67 4.468-.401 1.378-1.008 2.627-1.782 3.665-.761 1.076-1.671 1.933-2.678 2.52-1.01.604-2.102.916-3.205.916-1.103 0-2.194-.312-3.206-.916-.998-.606-1.906-1.46-2.677-2.52a14.478 14.478 0 01-1.782-3.665zm2.23-7.63a9.983 9.983 0 00-.498 3.202 9.847 9.847 0 00.498 3.133c.273 1.012.713 1.926 1.284 2.67.537.782 1.183 1.407 1.9 1.839.728.4 1.504.609 2.289.613a5.133 5.133 0 002.289-.613c.709-.451 1.353-1.074 1.9-1.838.559-.759.996-1.668 1.284-2.67a11.85 11.85 0 00.448-3.203 10.602 10.602 0 00-.415-3.126 8.644 8.644 0 00-1.275-2.655c-.535-.764-1.182-1.363-1.9-1.757a4.409 4.409 0 00-2.289-.682c-.79-.011-1.573.222-2.289.682-.725.375-1.375.977-1.9 1.757-.584.738-1.047 1.636-1.36 2.636l.034.011zm15.287 14.428V3.821h5.912a5.094 5.094 0 011.9.382 4.5 4.5 0 011.504 1.063 7.242 7.242 0 011.056 1.677c.278.596.502 1.237.667 1.907.132.7.205 1.417.22 2.139.005 1.606-.388 3.168-1.115 4.428-.78 1.324-1.896 2.195-3.125 2.44l5.135 8.474H70.14l-5.972-9.85v-1.607h2.737a2.11 2.11 0 001.182-.25 2.9 2.9 0 00.997-.907c.503-.75.782-1.732.782-2.751s-.279-2-.782-2.752a2.9 2.9 0 00-.997-.907 2.11 2.11 0 00-1.182-.249H63.28v19.238l-2.314.058zm12.61 0v-3.283h3.015V7.116h-3.015V3.821h8.387v3.283H78.95V23.06h3.015v3.283l-8.387.012zm9.037-6.648a15.476 15.476 0 01-.616-4.624c-.037-1.584.173-3.16.616-4.625.36-1.376.937-2.627 1.69-3.665.733-.978 1.592-1.761 2.534-2.312a6.672 6.672 0 013.125-.844 5.583 5.583 0 011.95.3 6.89 6.89 0 011.9.845 8.297 8.297 0 011.69 1.607A9.5 9.5 0 0196.897 8.7c.405.974.69 2.032.844 3.133h-2.534a6.3 6.3 0 00-.776-2.312 5.731 5.731 0 00-1.284-1.526c-.969-.743-2.067-1.111-3.176-1.064a4.154 4.154 0 00-2.189.575c-.692.398-1.316.99-1.831 1.737-1.087 1.592-1.67 3.707-1.622 5.885-.036 2.196.544 4.327 1.622 5.954.517.744 1.141 1.334 1.833 1.732a4.196 4.196 0 002.187.58c1.422.038 2.801-.674 3.851-1.988.583-.732 1.024-1.65 1.284-2.67h-6.022v-3.203h8.81a24.995 24.995 0 01-.448 3.896v-.081c-.365 1.427-.976 2.712-1.782 3.746-.756 1.083-1.668 1.942-2.678 2.52a6.426 6.426 0 01-3.015.844 6.716 6.716 0 01-3.176-.844c-.944-.543-1.804-1.328-2.534-2.312-.739-1.02-1.314-2.242-1.689-3.584l.042-.012zm14.95 6.648l6.579-22.834h1.69l6.537 22.834h-2.534l-1.951-6.648h-5.853c-.946 3.133-1.622 5.342-1.951 6.648h-2.517zm5.414-9.7h4.02l-1.951-7.943-2.069 7.943zm10.237 9.7V3.821h1.9l5.414 10.914 5.355-10.914h1.9v22.521h-2.34V10.47l-4.299 8.775h-1.283l-4.299-8.775v15.885h-2.348zm16.621 0v-3.283h3.016V7.116h-2.999V3.821h8.446v3.283h-3.015V23.06h3.015v3.283l-8.463.012zm9.038-1.838a2.598 2.598 0 01.083-.77c.065-.245.165-.471.295-.663.13-.192.287-.346.461-.454.175-.107.363-.165.554-.171.198-.003.393.05.575.155.182.105.346.261.481.458.252.375.391.866.391 1.375 0 .51-.139 1-.391 1.376a1.49 1.49 0 01-.48.462 1.074 1.074 0 01-.576.15.93.93 0 01-.556-.14 1.343 1.343 0 01-.449-.472 1.915 1.915 0 01-.29-.593 2.374 2.374 0 01-.098-.702v-.011z" fill="#141515"/><path d="M27.276 1L18.01 8.18 8.813 1 7.14 17.567 1 14.897 12.605 1.532" stroke="#141515" stroke-width=".23" stroke-miterlimit="10"/><path d="M33.686 7.035l-1.503 17.712-25.043-7.18 10.87 25.586 17.07-28.256L23.484 1.532M1 14.896l17.07 28.256" stroke="#141515" stroke-width=".23" stroke-miterlimit="10"/><path d="M18.01 43.153l14.173-18.406 2.897-9.85-1.394-7.862L27.276 1l-3.793.532L18.01 8.18l-5.405-6.648L8.813 1l-6.42 6.035L1 14.897l2.905 9.85L18.01 43.153z" stroke="#D3202B" stroke-width=".23" stroke-miterlimit="10"/><path d="M8.027 16.192a1.688 1.688 0 01-.112-.613c0-.214.038-.424.112-.613.04-.2.115-.382.22-.532.115-.151.246-.28.388-.381a1.04 1.04 0 01.448-.15c.17.013.339.064.498.15.142.101.273.23.389.381.085.168.158.346.22.532a1.714 1.714 0 01-.001 1.226 3.782 3.782 0 01-.22.532c-.115.151-.246.28-.388.381a1.27 1.27 0 01-.498.15 1.04 1.04 0 01-.448-.15 1.823 1.823 0 01-.388-.381 1.394 1.394 0 01-.22-.532zm.06-1.226a1.688 1.688 0 00-.113.613c0 .214.038.424.112.613.04.2.115.382.22.532.099.126.213.227.338.3.143.078.294.128.447.15a.83.83 0 00.448-.15.825.825 0 00.394-.305c.109-.148.186-.335.223-.539.073-.188.112-.399.112-.613 0-.213-.039-.424-.112-.612a2.192 2.192 0 00-.22-.532.875.875 0 00-.389-.3.83.83 0 00-.447-.151 1.33 1.33 0 00-.448.15 1.204 1.204 0 00-.338.3 2.19 2.19 0 00-.22.533l-.008.011zm2.457 2.22v-3.203h.845a.397.397 0 01.278.081.854.854 0 01.22.232c.033.036.06.081.08.133a.52.52 0 01.03.167.595.595 0 01.059.3.911.911 0 01-.06.382.676.676 0 01-.109.3.854.854 0 01-.22.232c-.11 0-.168.081-.337.081h-.313l1.056 1.295h-.06L10.9 15.891v-.08h.448c.11 0 .22-.082.337-.082l.17-.231a.394.394 0 00.079-.133.513.513 0 00.03-.168c.06-.08.06-.15.06-.3a.596.596 0 00-.06-.3.662.662 0 00-.101-.255c-.06-.081-.11-.15-.17-.15a.544.544 0 00-.337-.081h-.726v3.133l-.085-.058zm1.69 0v-.081h.472v-3.052h-.498v-.081h1.005v.08h-.507v3.053h.499v.081h-.972zm1.055-1.607a2.007 2.007 0 01.06-.613c.079-.19.172-.368.278-.532.098-.15.212-.278.338-.381a1.04 1.04 0 01.447-.081.821.821 0 01.448.08c.15.083.284.214.389.382.104.15.18.333.22.532h-.06a1.23 1.23 0 00-.389-.682.996.996 0 00-.616-.3.831.831 0 00-.389.15.972.972 0 00-.337.381 2.03 2.03 0 00-.28.463 2.274 2.274 0 00-.058.613c-.012.207.008.416.059.612.06.206.156.388.279.532a.641.641 0 00.146.197.446.446 0 00.191.104.833.833 0 00.389.15 1.27 1.27 0 00.498-.15c.11-.15.279-.3.389-.463.112-.166.173-.386.169-.613h-1.005v-.08h1.114c-.059.08-.059.23-.11.3a.984.984 0 01-.07.297.754.754 0 01-.149.235c-.105.168-.238.3-.388.381a1.035 1.035 0 01-.448.15 1.333 1.333 0 01-.448-.15 1.699 1.699 0 01-.338-.381 3.396 3.396 0 01-.278-.532 2.01 2.01 0 01-.06-.613l.01.012zm2.289 1.607v-.081h.507v-3.052h-.499v-.081h1.056v.08h-.557v3.053h.498v.081h-1.005zm1.284 0v-3.203h.067l1.504 3.134v-3.134h.059v3.203h-.06l-1.503-3.052v3.052h-.067zm1.782 0l.946-3.284h.059l.946 3.284h-.06l-.337-1.064h-1.174l-.338 1.064h-.042zm.388-1.156h1.174l-.557-1.989-.617 1.989zm1.69 1.156v-3.203h.059v3.134h1.284v.08l-1.343-.011zm1.342-.763h.06a.539.539 0 00.044.224c.03.068.073.122.125.157.066.14.164.245.278.301.11 0 .22.081.338.081.092-.035.185-.061.279-.081.11-.08.169-.15.279-.231a1.08 1.08 0 00.169-.3v-.463c0-.081-.06-.15-.11-.232-.051-.08-.06-.08-.11-.15-.05-.07-.169-.08-.22-.08-.05 0-.169 0-.22-.082h-.219c-.11 0-.169 0-.22-.08-.05-.082-.168-.082-.22-.082-.05 0-.109-.15-.109-.23a.595.595 0 01-.059-.301v-.081c0-.231 0-.382.11-.463.042-.113.1-.215.169-.3a1.96 1.96 0 00.278-.081c.06-.081.11-.081.22-.081a.162.162 0 01.11.08.397.397 0 01.278.082c.06.08.17.15.22.23a.71.71 0 01.11.383h-.06c0-.15-.058-.232-.109-.382a1.23 1.23 0 00-.279-.231c-.11 0-.169-.081-.278-.081h-.076a.658.658 0 00-.338.15c-.11 0-.17.15-.279.231-.062.141-.1.3-.11.463v.08c.06.151.06.232.11.301.02.06.05.113.089.153.038.04.083.068.13.079.11 0 .17.08.28.08l.557.15c.11 0 .169.082.279.151.033.036.06.081.08.133a.58.58 0 01.03.168v.381a.517.517 0 01-.03.167.394.394 0 01-.08.134l-.17.231c-.11.08-.168.15-.278.15a1.865 1.865 0 01-.279.081c-.059 0-.169-.08-.22-.08-.05 0-.168-.082-.278-.151l-.17-.231c-.058-.15-.109-.232-.109-.382l.008.035zm6.47.763v-3.203h.06l1.004 1.989.946-1.989h.06v3.203h-.06v-3.133l-.946 1.988-.945-1.988v3.133h-.119zm2.399 0v-3.203h1.284v.081h-1.225v1.527h1.174v.08h-1.174v1.446h1.225v.08l-1.284-.011z" fill="#141515"/><path d="M8.027 16.192a1.688 1.688 0 01-.112-.613c0-.214.038-.424.112-.613.04-.2.115-.382.22-.532.115-.151.246-.28.388-.381a1.04 1.04 0 01.448-.15c.17.013.339.064.498.15.142.101.273.23.389.381.085.168.158.346.22.532a1.714 1.714 0 01-.001 1.226 3.782 3.782 0 01-.22.532c-.115.151-.246.28-.388.381a1.27 1.27 0 01-.498.15 1.04 1.04 0 01-.448-.15 1.823 1.823 0 01-.388-.381 1.394 1.394 0 01-.22-.532v0zm.06-1.226a1.688 1.688 0 00-.113.613c0 .214.038.424.112.613.04.2.115.382.22.532.099.126.213.227.338.3.143.078.294.128.447.15a.83.83 0 00.448-.15.825.825 0 00.394-.305c.109-.148.186-.335.223-.539.073-.188.112-.399.112-.613 0-.213-.039-.424-.112-.612a2.192 2.192 0 00-.22-.532.875.875 0 00-.389-.3.83.83 0 00-.447-.151 1.33 1.33 0 00-.448.15 1.204 1.204 0 00-.338.3 2.19 2.19 0 00-.22.533l-.008.011zm2.457 2.22v-3.203h.845a.397.397 0 01.278.081.854.854 0 01.22.232c.033.036.06.081.08.133a.52.52 0 01.03.167.595.595 0 01.059.3.911.911 0 01-.06.382.676.676 0 01-.109.3.854.854 0 01-.22.232c-.11 0-.168.081-.337.081h-.313l1.056 1.295h-.06L10.9 15.891v-.08h.448c.11 0 .22-.082.337-.082l.17-.231a.394.394 0 00.079-.133.513.513 0 00.03-.168c.06-.08.06-.15.06-.3a.596.596 0 00-.06-.3.662.662 0 00-.101-.255c-.06-.081-.11-.15-.17-.15a.544.544 0 00-.337-.081h-.726v3.133l-.085-.058zm1.69 0v-.081h.472v-3.052h-.498v-.081h1.005v.08h-.507v3.053h.499v.081h-.972zm1.055-1.607a2.007 2.007 0 01.06-.613c.079-.19.172-.368.278-.532.098-.15.212-.278.338-.381a1.04 1.04 0 01.447-.081.821.821 0 01.448.08c.15.083.284.214.389.382.104.15.18.333.22.532h-.06a1.23 1.23 0 00-.389-.682.996.996 0 00-.616-.3.831.831 0 00-.389.15.972.972 0 00-.337.381 2.03 2.03 0 00-.28.463 2.274 2.274 0 00-.058.613c-.012.207.008.416.059.612.06.206.156.388.279.532a.641.641 0 00.146.197.446.446 0 00.191.104.833.833 0 00.389.15 1.27 1.27 0 00.498-.15c.11-.15.279-.3.389-.463.112-.166.173-.386.169-.613h-1.005v-.08h1.114c-.059.08-.059.23-.11.3a.984.984 0 01-.07.297.754.754 0 01-.149.235c-.105.168-.238.3-.388.381a1.035 1.035 0 01-.448.15 1.333 1.333 0 01-.448-.15 1.699 1.699 0 01-.338-.381 3.396 3.396 0 01-.278-.532 2.01 2.01 0 01-.06-.613l.01.012zm2.289 1.607v-.081h.507v-3.052h-.499v-.081h1.056v.08h-.557v3.053h.498v.081h-1.005zm1.284 0v-3.203h.067l1.504 3.134v-3.134h.059v3.203h-.06l-1.503-3.052v3.052h-.067zm1.782 0l.946-3.284h.059l.946 3.284h-.06l-.337-1.064h-1.174l-.338 1.064h-.042zm.388-1.156h1.174l-.557-1.989-.617 1.989zm1.69 1.156v-3.203h.059v3.134h1.284v.08l-1.343-.011zm1.342-.763h.06a.539.539 0 00.044.224c.03.068.073.122.125.157.066.14.164.245.278.301.11 0 .22.081.338.081.092-.035.185-.061.279-.081.11-.08.169-.15.279-.231a1.08 1.08 0 00.169-.3v-.463c0-.081-.06-.15-.11-.232-.051-.08-.06-.08-.11-.15-.05-.07-.169-.08-.22-.08-.05 0-.169 0-.22-.082h-.219c-.11 0-.169 0-.22-.08-.05-.082-.168-.082-.22-.082-.05 0-.109-.15-.109-.23a.595.595 0 01-.059-.301v-.081c0-.231 0-.382.11-.463.042-.113.1-.215.169-.3a1.96 1.96 0 00.278-.081c.06-.081.11-.081.22-.081a.162.162 0 01.11.08.397.397 0 01.278.082c.06.08.17.15.22.23a.71.71 0 01.11.383h-.06c0-.15-.058-.232-.109-.382a1.23 1.23 0 00-.279-.231c-.11 0-.169-.081-.278-.081h-.076a.658.658 0 00-.338.15c-.11 0-.17.15-.279.231-.062.141-.1.3-.11.463v.08c.06.151.06.232.11.301.02.06.05.113.089.153.038.04.083.068.13.079.11 0 .17.08.28.08l.557.15c.11 0 .169.082.279.151.033.036.06.081.08.133a.58.58 0 01.03.168v.381a.517.517 0 01-.03.167.394.394 0 01-.08.134l-.17.231c-.11.08-.168.15-.278.15a1.865 1.865 0 01-.279.081c-.059 0-.169-.08-.22-.08-.05 0-.168-.082-.278-.151l-.17-.231c-.058-.15-.109-.232-.109-.382l.008.035zm6.47.763v-3.203h.06l1.004 1.989.946-1.989h.06v3.203h-.06v-3.133l-.946 1.988-.945-1.988v3.133h-.119zm2.399 0v-3.203h1.284v.081h-1.225v1.527h1.174v.08h-1.174v1.446h1.225v.08l-1.284-.011z" stroke="#141515" stroke-width=".23" stroke-miterlimit="10"/><path d="M26.997 17.186l-.338-.462c-.2.306-.478.497-.777.532a.698.698 0 01-.558-.232 1.335 1.335 0 01-.169-.682c-.001-.1.013-.2.042-.291a.728.728 0 01.128-.24c.132-.162.283-.291.447-.382-.11-.081-.11-.15-.169-.231-.059-.081-.059-.15-.11-.301-.05-.15-.059-.15-.059-.3a.946.946 0 01.168-.534.516.516 0 01.39-.23.55.55 0 01.447.232c.11.08.11.3.11.462v.382l-.169.23c-.11.082-.169.151-.22.151a.327.327 0 01-.097.109.227.227 0 01-.122.041l.726.995a6.04 6.04 0 00.28-1.226h.117a4.643 4.643 0 01-.337 1.376l.447.613-.177-.012zm-1.453-2.601c.001.141.04.277.11.381 0 .081.11.232.169.382.11-.081.22-.081.279-.15.059-.07.11-.081.168-.15.06-.07.11-.151.11-.232 0-.08.06-.15.06-.3s0-.301-.11-.382a.397.397 0 00-.338-.15.297.297 0 00-.181.023.404.404 0 00-.154.13.6.6 0 00-.096.212.736.736 0 00-.017.247v-.011zm1.005 1.988l-.726-1.063c-.17.15-.338.23-.389.381a.67.67 0 00-.119.208.86.86 0 00-.05.255c-.001.1.013.2.042.29.03.093.073.175.127.242a.573.573 0 00.205.185c.077.04.16.056.243.046a.58.58 0 00.39-.135.93.93 0 00.277-.397v-.012z" fill="#141515"/><path d="M26.997 17.186l-.338-.462c-.2.306-.478.497-.777.532a.698.698 0 01-.558-.232 1.335 1.335 0 01-.169-.682c-.001-.1.013-.2.042-.291a.728.728 0 01.128-.24c.132-.162.283-.291.447-.382-.11-.081-.11-.15-.169-.231-.059-.081-.059-.15-.11-.301-.05-.15-.059-.15-.059-.3a.946.946 0 01.168-.534.516.516 0 01.39-.23.55.55 0 01.447.232c.11.08.11.3.11.462v.382l-.169.23c-.11.082-.169.151-.22.151a.327.327 0 01-.097.109.227.227 0 01-.122.041l.726.995a6.04 6.04 0 00.28-1.226h.117a4.643 4.643 0 01-.337 1.376l.447.613-.177-.012zm-1.453-2.601c.001.141.04.277.11.381 0 .081.11.232.169.382.11-.081.22-.081.279-.15.059-.07.11-.081.168-.15.06-.07.11-.151.11-.232 0-.08.06-.15.06-.3s0-.301-.11-.382a.397.397 0 00-.338-.15.297.297 0 00-.181.023.404.404 0 00-.154.13.6.6 0 00-.096.212.736.736 0 00-.017.247v-.011zm1.005 1.988l-.726-1.063c-.17.15-.338.23-.389.381a.67.67 0 00-.119.208.86.86 0 00-.05.255c-.001.1.013.2.042.29.03.093.073.175.127.242a.573.573 0 00.205.185c.077.04.16.056.243.046a.58.58 0 00.39-.135.93.93 0 00.277-.397v-.012z" stroke="#141515" stroke-width=".23" stroke-miterlimit="10"/></svg>