<svg width="0" height="0" class="hidden"><symbol fill="none" xmlns="http://www.w3.org/2000/svg" viewBox="0 0 18 18" id="pencil"><path fill="currentColor" d="M15.563 15.33a.563.563 0 010 1.125h-5.44a.563.563 0 010-1.125h5.44zM12.087 2.74l1.293 1.004c.456.272.812.757.947 1.332a2.147 2.147 0 01-.287 1.667l-.006.007c-.05.067-.272.346-1.385 1.742a.564.564 0 01-.096.12c-.076.095-.157.195-.24.301l-.172.214-1.267 1.587-.255.319-3.758 4.702c-.344.429-.86.678-1.414.685l-2.73.035H2.71a.563.563 0 01-.547-.433l-.615-2.603c-.126-.54 0-1.096.345-1.528l7.065-8.837.009-.01a2.253 2.253 0 013.12-.304zm-3.916 3.1l-5.4 6.754c-.128.16-.175.367-.128.566l.511 2.164 2.28-.029a.712.712 0 00.55-.264l2.425-3.036.313-.39.313-.392 2.332-2.919L8.17 5.84zm1.662-2.078l-.96 1.2 3.196 2.452c.615-.77 1.02-1.277 1.057-1.326.123-.2.171-.481.107-.753a1.058 1.058 0 00-.49-.665 244.788 244.788 0 01-1.355-1.049 1.123 1.123 0 00-1.555.141z"/></symbol><symbol fill="none" xmlns="http://www.w3.org/2000/svg" viewBox="0 0 42 42" id="vk"><rect width="42" height="42" rx="21" fill="#07f"/><path d="M22.032 28.35c-7.893 0-12.394-5.518-12.582-14.7h3.953c.13 6.74 3.045 9.594 5.353 10.183V13.65h3.723v5.812c2.28-.25 4.675-2.898 5.483-5.812h3.722a11.328 11.328 0 01-1.783 4.203 11.086 11.086 0 01-3.281 3.125 11.439 11.439 0 013.74 3.037 11.708 11.708 0 012.19 4.335h-4.098a7.288 7.288 0 00-2.209-3.546 7.063 7.063 0 00-3.764-1.707v5.253h-.447z" fill="#fff"/></symbol><symbol fill="none" xmlns="http://www.w3.org/2000/svg" viewBox="0 0 42 42" id="telegram"><rect width="42" height="42" rx="21" fill="#27a6e5"/><path d="M29.4 13.232l-3.156 16.475s-.441 1.142-1.654.594l-7.281-5.78-.034-.018c.984-.914 8.61-8.015 8.943-8.337.516-.499.196-.795-.403-.419L14.55 23.156l-4.347-1.515s-.683-.252-.75-.8c-.066-.548.773-.845.773-.845l17.718-7.198s1.456-.662 1.456.434z" fill="#fefefe"/></symbol></svg>