<svg width="0" height="0" class="hidden">

    <symbol fill="none" xmlns="http://www.w3.org/2000/svg" viewBox="0 0 18 18" id="pencil">
        <path fill="currentColor" d="M15.5631 15.3296C15.8736 15.3296 16.1256 15.5816 16.1256 15.8921C16.1256 16.2026 15.8736 16.4546 15.5631 16.4546H10.1234C9.81285 16.4546 9.56085 16.2026 9.56085 15.8921C9.56085 15.5816 9.81285 15.3296 10.1234 15.3296H15.5631ZM12.0875 2.74017C12.1249 2.76942 13.3797 3.74442 13.3797 3.74442C13.8357 4.01592 14.1919 4.50117 14.327 5.07567C14.4612 5.64417 14.3637 6.23067 14.0509 6.72642C14.0489 6.72973 14.0468 6.73299 14.0395 6.74271L14.0339 6.75022C13.9831 6.81713 13.7625 7.09617 12.6487 8.49161C12.6383 8.5099 12.6266 8.52703 12.6138 8.54367C12.595 8.5682 12.5746 8.59076 12.5528 8.61129C12.4768 8.70694 12.3965 8.80745 12.3122 8.91312L12.1412 9.12722C11.7885 9.56895 11.3701 10.0928 10.8738 10.714L10.6191 11.0329C9.6608 12.2322 8.43357 13.7679 6.86145 15.7347C6.5172 16.1637 6.0012 16.4134 5.44695 16.4202L2.7177 16.4547H2.7102C2.44995 16.4547 2.22345 16.2762 2.1627 16.0219L1.54845 13.4187C1.4217 12.8794 1.5477 12.3229 1.89345 11.8909L8.95845 3.05442C8.96145 3.05142 8.9637 3.04767 8.9667 3.04467C9.74145 2.11842 11.1424 1.98192 12.0875 2.74017ZM8.17074 5.84019L2.7717 12.5937C2.64345 12.7542 2.5962 12.9612 2.64345 13.1599L3.1542 15.3237L5.43345 15.2952C5.6502 15.2929 5.85045 15.1962 5.9832 15.0312C6.66681 14.1759 7.52599 13.1008 8.40934 11.9955L8.72187 11.6044L9.03492 11.2126C9.86336 10.1759 10.6818 9.15149 11.3666 8.29409L8.17074 5.84019ZM9.83295 3.76242L8.87349 4.96119L12.0691 7.41439C12.6842 6.64396 13.0888 6.13654 13.1262 6.08817C13.2492 5.88867 13.2972 5.60667 13.2327 5.33517C13.1667 5.05692 12.9934 4.82067 12.7437 4.66992C12.6904 4.63317 11.4267 3.65217 11.3877 3.62142C10.9122 3.24042 10.2184 3.30642 9.83295 3.76242Z"/>
    </symbol>
    <symbol fill="none" xmlns="http://www.w3.org/2000/svg" viewBox="0 0 42 42" id="vk">
        <rect width="42" height="42" rx="21" fill="#0077ff"/>
        <path d="M22.0316 28.35C14.1393 28.35 9.63757 22.832 9.45 13.65H13.4034C13.5333 20.3894 16.4478 23.244 18.7564 23.8326V13.65H22.4789V19.4623C24.7586 19.2122 27.1537 16.5635 27.9617 13.65H31.6843C31.3798 15.1611 30.7729 16.5918 29.9015 17.8527C29.0301 19.1135 27.9129 20.1775 26.6199 20.978C28.0632 21.7094 29.338 22.7446 30.3602 24.0154C31.3824 25.2861 32.1288 26.7635 32.55 28.35H28.4523C28.0742 26.972 27.3057 25.7385 26.2431 24.804C25.1805 23.8695 23.871 23.2757 22.4789 23.0969V28.35H22.0316Z" fill="white"/>
    </symbol>
    <symbol fill="none" xmlns="http://www.w3.org/2000/svg" viewBox="0 0 42 42" id="telegram">
        <rect width="42" height="42" rx="21" fill="#27a6e5"/>
        <path d="M29.4 13.2323L26.2443 29.7069C26.2443 29.7069 25.8028 30.8491 24.5898 30.3013L17.3088 24.5202L17.275 24.5031C18.2585 23.5886 25.885 16.4878 26.2183 16.1659C26.7343 15.6674 26.414 15.3706 25.8149 15.7472L14.5496 23.1556L10.2035 21.6413C10.2035 21.6413 9.51957 21.3893 9.45377 20.8415C9.38711 20.2928 10.226 19.9961 10.226 19.9961L27.9438 12.7984C27.9438 12.7984 29.4 12.1358 29.4 13.2323Z" fill="#fefefe"/>
    </symbol>

</svg>